<?xml version="1.0" standalone="no"?>
<!DOCTYPE svg PUBLIC "-//W3C//DTD SVG 20010904//EN"
 "http://www.w3.org/TR/2001/REC-SVG-20010904/DTD/svg10.dtd">
<svg version="1.0" xmlns="http://www.w3.org/2000/svg"
 width="640.000000pt" height="640.000000pt" viewBox="0 0 640.000000 640.000000"
 preserveAspectRatio="xMidYMid meet">
<metadata>
Created by potrace 1.11, written by Peter Selinger 2001-2013
</metadata>
<g transform="translate(0.000000,640.000000) scale(0.100000,-0.100000)"
fill="#000000" stroke="none">
<path d="M0 3200 l0 -3200 1155 0 c635 0 1155 3 1155 8 0 19 51 61 68 55 9 -3
14 -3 10 2 -10 10 41 37 54 29 6 -4 5 -10 -3 -15 -8 -5 -9 -9 -3 -9 24 0 55
59 74 140 4 19 13 48 19 63 6 17 11 93 11 190 0 154 5 220 31 415 11 82 29
112 29 47 0 -49 35 -132 83 -194 l41 -54 84 7 c56 4 108 16 158 35 62 24 73
26 71 12 -1 -9 -7 -22 -12 -30 -5 -10 -4 -16 3 -19 7 -2 8 -9 2 -20 -35 -67
-54 -160 -71 -352 -15 -173 -19 -201 -29 -220 -15 -29 -13 -90 4 -90 14 0 31
27 27 44 -1 5 4 13 11 17 16 11 88 12 88 1 0 -4 10 -12 23 -17 12 -6 21 -17
19 -25 -2 -11 1 -10 11 2 8 10 22 18 31 18 20 0 21 14 2 29 -8 7 -12 21 -9 31
3 13 0 20 -9 20 -7 0 -20 9 -28 20 -8 11 -20 20 -27 20 -7 0 -13 5 -13 11 0 5
-4 7 -10 4 -5 -3 -10 -2 -10 4 0 6 -6 8 -14 5 -7 -3 -16 2 -19 10 -4 9 -11 16
-17 16 -6 0 -9 -4 -6 -8 3 -5 -1 -9 -9 -9 -11 0 -12 5 -1 31 12 29 44 45 39
20 -1 -6 9 -11 24 -11 14 0 28 -4 32 -9 3 -5 19 -15 34 -23 16 -9 26 -20 23
-28 -3 -7 0 -13 8 -13 17 0 56 -80 56 -118 0 -18 6 -32 16 -36 17 -6 554 -9
554 -2 0 2 -7 20 -15 39 -8 20 -15 52 -15 70 0 34 -44 153 -78 212 -10 16 -28
56 -41 87 -14 34 -31 60 -42 63 -10 4 -19 11 -19 16 0 6 -3 8 -8 6 -4 -3 -24
3 -45 13 -21 10 -52 22 -70 25 -17 4 -36 10 -42 14 -17 11 -107 13 -152 3 -28
-7 -45 -6 -52 1 -8 8 -11 8 -11 0 0 -6 -12 -14 -27 -18 -16 -3 -35 -12 -43
-19 -8 -7 -25 -16 -37 -19 -20 -4 -23 -1 -23 25 0 24 3 28 19 23 11 -3 22 -1
26 5 6 9 40 28 65 35 3 1 22 9 44 18 45 20 103 22 108 5 3 -9 10 -7 23 6 17
17 20 17 30 2 14 -18 42 -21 47 -6 2 6 14 1 26 -10 18 -17 26 -19 37 -10 11 9
17 7 27 -9 7 -12 21 -21 30 -21 20 0 19 6 -35 120 -47 99 -67 150 -61 150 3 0
18 -6 32 -14 45 -23 74 -34 137 -51 33 -10 78 -26 99 -36 62 -30 80 -25 113
26 15 25 31 45 36 45 4 0 7 6 7 13 0 8 9 22 20 32 11 10 20 24 20 32 0 7 7 16
16 20 8 3 13 12 10 19 -7 17 -6 17 31 -1 29 -14 30 -18 25 -61 -4 -36 -1 -49
16 -67 12 -12 24 -42 28 -65 4 -24 13 -46 20 -49 7 -2 12 -19 12 -36 0 -45 12
-88 33 -119 11 -14 19 -37 19 -51 0 -14 7 -32 15 -41 8 -8 15 -22 15 -31 0 -9
5 -26 11 -37 9 -17 13 -18 21 -7 6 10 8 1 4 -26 -2 -22 -2 -32 0 -22 8 26 24
20 24 -8 0 -30 26 -85 40 -85 6 0 10 -6 10 -13 0 -17 85 -107 125 -133 17 -10
38 -29 48 -41 15 -19 28 -23 78 -23 32 0 59 2 59 5 0 15 -31 64 -42 67 -10 4
-10 9 2 23 8 10 10 16 4 12 -7 -4 -22 17 -39 56 -41 94 -40 103 14 122 25 9
58 19 74 22 43 8 42 23 -1 23 -49 0 -123 25 -151 51 -29 27 -28 67 2 65 12 -1
24 2 27 6 3 4 30 1 60 -6 75 -17 72 -16 100 -23 14 -3 30 -10 36 -14 7 -5 17
6 28 31 24 54 99 119 133 115 58 -6 65 -67 15 -134 -15 -20 -31 -40 -37 -44
-6 -5 -1 -6 10 -2 11 4 34 9 52 11 17 2 44 9 58 14 14 6 28 10 30 10 13 0 45
-185 60 -342 l7 -68 479 0 c270 0 479 4 479 9 0 16 42 20 57 5 12 -11 52 -14
204 -14 l189 0 0 2244 0 2244 -29 4 c-34 5 -46 -18 -30 -59 15 -39 10 -50 -10
-24 -19 24 -19 24 -25 3 -4 -12 -2 -30 3 -41 6 -11 11 -24 11 -30 0 -19 -18
-12 -25 10 -5 16 -10 18 -21 8 -11 -9 -14 -8 -14 4 0 10 -7 14 -22 11 -23 -5
-23 -5 -3 10 64 48 61 45 43 46 -29 0 -20 28 11 35 38 8 45 28 23 70 -19 39
-31 36 -58 -15 -13 -25 -19 -30 -22 -18 -2 9 2 26 7 37 11 19 10 20 -26 7 -28
-9 -39 -21 -48 -46 -7 -21 -14 -29 -19 -22 -4 6 -2 20 4 31 14 27 13 29 -15
23 -32 -6 -35 23 -3 31 21 6 21 7 4 26 -29 32 -9 43 23 14 15 -15 38 -27 50
-28 25 -2 26 3 5 26 -30 33 -9 40 28 9 l37 -30 25 33 c33 43 32 46 -4 58 -37
14 -42 44 -5 35 20 -5 23 -3 18 10 -3 8 -16 20 -29 25 -29 10 -32 29 -5 29 14
0 18 5 14 20 -8 30 6 24 18 -7 l11 -28 11 23 c5 12 14 22 19 22 11 0 10 -2 -7
-43 -9 -23 -11 -38 -5 -42 6 -3 13 1 16 9 3 9 10 13 16 10 5 -3 2 -16 -7 -31
-13 -19 -14 -27 -4 -39 6 -8 18 -14 25 -14 12 0 14 138 14 875 l0 875 -460 0
c-403 0 -460 -2 -460 -15 0 -19 -50 -76 -64 -74 -15 3 -110 -42 -114 -52 -2
-5 -16 -9 -31 -9 -15 0 -36 -6 -46 -14 -11 -8 -25 -12 -32 -9 -7 3 -13 1 -13
-5 0 -13 -221 -13 -237 0 -7 5 -16 7 -22 4 -16 -10 -22 29 -16 103 l6 71 -428
-2 -428 -3 3 -26 c3 -29 -25 -87 -50 -103 -23 -14 -66 7 -78 40 -8 20 -14 24
-23 16 -16 -13 -94 -32 -101 -24 -3 3 -20 7 -38 9 -18 2 -36 7 -41 12 -5 5
-15 7 -22 5 -7 -3 -16 -1 -20 5 -3 6 -17 11 -30 11 -13 0 -25 5 -27 11 -2 6
-21 12 -42 13 -43 1 -37 13 -96 -184 -13 -41 -26 -79 -30 -83 -12 -14 -70 -19
-70 -7 0 6 -4 8 -10 5 -5 -3 -12 5 -15 18 -12 48 18 267 37 267 5 0 6 5 3 10
-4 6 -155 10 -420 10 l-413 0 -18 -57 c-9 -32 -26 -75 -37 -95 -19 -35 -52
-55 -62 -37 -3 4 -12 6 -20 3 -8 -3 -24 1 -37 10 -12 9 -29 16 -36 16 -25 0
-152 81 -152 97 0 10 -6 13 -16 9 -8 -3 -12 -2 -9 4 3 6 0 10 -7 10 -8 0 -20
9 -28 20 -14 20 -26 20 -687 20 l-673 0 20 -32 c10 -17 17 -35 14 -40 -3 -4 0
-8 5 -8 6 0 11 -9 11 -20 0 -11 4 -20 9 -20 5 0 20 -17 32 -37 13 -21 26 -40
29 -43 3 -3 14 -23 24 -45 10 -22 32 -67 48 -100 20 -37 26 -61 19 -63 -6 -2
-11 -9 -11 -17 0 -14 -22 -35 -42 -39 -30 -6 -68 -26 -68 -36 0 -5 -4 -10 -10
-10 -5 0 -10 7 -10 15 0 9 -6 12 -15 9 -8 -4 -15 -1 -15 6 0 6 -14 31 -30 56
-17 24 -27 44 -23 44 4 0 1 6 -8 13 -8 7 -25 33 -38 59 -12 25 -29 52 -37 58
-7 7 -14 18 -14 25 0 7 -7 18 -15 25 -9 7 -13 15 -11 17 3 3 -10 26 -28 52
-33 47 -63 110 -58 124 4 14 -36 7 -42 -8 -3 -8 -14 -15 -25 -15 -13 0 -18 -5
-15 -14 4 -10 -6 -15 -33 -19 -33 -4 -42 0 -70 29 l-32 34 -175 0 -176 0 0
-3200z m2763 3126 c8 -19 -15 -37 -32 -26 -17 10 -7 40 13 40 7 0 16 -6 19
-14z m-950 -86 c3 -11 3 -33 1 -48 -3 -15 -6 -36 -8 -46 -1 -11 -8 -22 -14
-24 -7 -2 -12 -9 -12 -15 -1 -7 -14 -28 -30 -47 -17 -19 -30 -39 -30 -46 0 -6
-7 -17 -15 -24 -18 -15 -20 -31 -2 -27 6 1 11 -3 10 -9 -1 -7 6 -10 16 -7 21
5 31 -20 31 -83 l0 -41 54 -12 c32 -7 62 -21 76 -36 13 -14 29 -25 37 -25 7 0
13 -6 13 -13 0 -7 10 -17 23 -22 12 -6 21 -18 21 -27 -1 -10 3 -16 8 -15 17 3
45 -95 43 -153 -1 -30 -7 -73 -13 -95 -15 -51 -69 -138 -82 -130 -6 3 -10 -3
-10 -14 0 -12 -6 -21 -13 -21 -7 0 -20 -9 -30 -20 -9 -11 -24 -20 -32 -20 -8
0 -15 -4 -15 -9 0 -6 -27 -15 -60 -22 -33 -6 -60 -16 -60 -20 0 -5 -4 -9 -10
-9 -5 0 -9 3 -9 8 3 18 -2 26 -9 14 -7 -9 -15 -10 -35 -3 -18 7 -27 7 -27 1 0
-14 -47 -2 -96 26 -49 26 -124 99 -124 120 0 8 -4 14 -10 14 -5 0 -10 6 -10
13 0 6 -7 24 -14 40 -23 42 -15 170 13 230 13 26 27 47 31 47 5 0 12 9 15 20
3 11 12 20 18 20 7 0 21 14 32 30 11 16 25 30 32 30 6 0 13 5 15 10 2 6 21 17
43 25 25 8 38 19 36 27 -11 32 -6 75 11 100 12 17 18 45 18 85 1 103 49 205
104 219 14 3 29 10 32 15 10 16 32 9 37 -11z m2255 -7 c-4 -38 -39 -43 -61 -9
-15 23 -15 25 1 29 9 3 27 5 40 6 20 1 23 -3 20 -26z m-155 -147 c7 -17 -18
-40 -33 -31 -5 3 -10 15 -10 26 0 23 35 27 43 5z m1823 -1 c3 -7 16 -10 31 -7
22 4 25 2 20 -12 -6 -14 -3 -16 13 -11 15 5 22 0 30 -20 13 -34 13 -122 0
-130 -17 -11 -11 -25 11 -25 13 0 18 -4 13 -12 -5 -7 0 -9 14 -6 22 6 32 -13
32 -68 0 -22 -8 -37 -25 -50 -30 -22 -31 -31 -7 -39 20 -6 47 -78 37 -95 -3
-6 -2 -10 4 -10 19 0 11 -171 -10 -219 -12 -27 -16 -49 -10 -58 5 -9 6 -24 4
-34 -3 -11 0 -19 7 -19 16 0 73 -57 85 -85 13 -31 14 -59 1 -67 -8 -6 -7 -8 2
-8 6 0 12 -9 12 -19 0 -11 5 -23 10 -26 6 -3 10 1 10 9 0 8 9 20 20 26 18 10
20 17 14 75 -4 42 -3 65 4 65 5 0 9 7 8 16 0 9 5 19 12 21 11 4 15 -21 16
-104 0 -20 3 -19 29 13 31 37 39 37 44 1 3 -23 -54 -97 -75 -97 -6 0 -13 -8
-17 -17 -8 -24 -51 -73 -65 -73 -5 0 -10 -20 -10 -45 0 -50 -20 -137 -34 -146
-5 -4 -6 -11 -2 -17 3 -6 -1 -18 -10 -26 -8 -9 -13 -16 -9 -16 22 0 -85 -139
-107 -140 -10 0 -18 -6 -18 -14 0 -17 -35 -30 -51 -20 -8 4 -9 3 -5 -4 4 -7 1
-12 -9 -12 -8 0 -23 -4 -33 -9 -51 -27 -88 -39 -116 -36 -17 1 -34 -2 -37 -8
-7 -9 -114 -11 -179 -3 -98 12 -125 18 -128 27 -2 5 -10 9 -17 9 -17 0 -95 51
-95 62 0 4 -7 8 -15 8 -8 0 -15 7 -15 15 0 8 -7 15 -15 15 -8 0 -15 7 -15 15
0 8 -11 21 -23 30 -13 8 -30 27 -38 43 -7 15 -24 43 -37 63 -31 49 -43 102
-46 199 -1 53 -5 69 -23 88 -13 12 -26 22 -29 22 -4 0 -23 18 -44 39 -28 28
-37 45 -33 60 6 23 33 29 33 9 0 -10 3 -9 9 1 6 9 11 10 15 2 4 -6 4 -16 0
-23 -4 -7 -3 -8 5 -4 7 4 11 15 10 24 -5 58 2 113 16 119 22 8 33 -6 15 -17
-10 -7 -11 -10 -2 -10 8 0 12 -22 12 -76 0 -44 4 -73 9 -69 5 3 12 1 16 -5 11
-18 21 -11 60 50 21 33 44 60 51 60 9 0 12 13 10 38 -3 42 13 80 43 101 11 8
17 19 13 25 -10 17 -11 146 -1 152 5 3 7 9 4 14 -3 5 -1 11 5 15 5 3 10 17 10
29 0 13 10 34 23 47 12 13 34 41 47 61 14 21 33 38 43 38 9 0 16 3 16 8 -4 25
3 34 22 29 15 -4 19 -2 15 9 -3 9 1 17 12 20 49 16 117 65 106 77 -13 13 49
38 95 40 49 1 69 15 55 38 -3 5 1 12 10 15 8 3 12 12 9 20 -3 8 0 14 6 14 6 0
11 5 11 10 0 6 6 17 13 25 15 17 97 17 103 0z m-3625 -38 c-13 -13 -26 -3 -16
12 3 6 11 8 17 5 6 -4 6 -10 -1 -17z m2729 3 c0 -13 -7 -20 -20 -20 -19 0 -27
20 -13 33 13 14 33 6 33 -13z m-4549 -147 l11 -28 11 23 c5 12 14 22 19 22 11
0 10 -7 -6 -39 -9 -17 -11 -33 -6 -41 7 -12 10 -12 16 3 3 9 10 14 16 11 5 -3
2 -17 -8 -32 -16 -24 -16 -26 2 -39 10 -8 28 -12 39 -11 17 3 20 10 18 48 l-3
45 14 -30 c12 -25 15 -27 21 -12 4 9 4 33 1 51 -4 20 -2 37 4 41 6 4 10 -5 10
-23 0 -35 9 -45 27 -30 19 15 29 2 12 -18 -11 -13 -11 -15 2 -14 28 4 41 0 36
-12 -2 -8 -16 -12 -34 -10 -40 4 -52 -15 -19 -28 14 -5 24 -15 22 -22 -3 -7
-7 -25 -10 -39 -5 -23 -3 -25 24 -21 17 2 30 10 30 17 0 7 7 18 16 26 13 11
14 9 9 -14 -6 -23 -4 -27 13 -27 32 0 36 -19 8 -31 -21 -10 -24 -17 -20 -38 6
-24 4 -23 -30 13 -29 31 -39 37 -46 26 -5 -8 -4 -22 2 -33 5 -10 7 -21 4 -24
-8 -8 -26 7 -26 21 0 8 -6 19 -14 25 -11 10 -18 8 -34 -9 -24 -26 -18 -58 14
-71 26 -9 32 -29 9 -29 -23 0 -6 -27 21 -34 13 -4 24 -13 24 -21 0 -8 -6 -12
-14 -9 -9 4 -16 -3 -18 -18 l-5 -23 -11 25 c-8 18 -11 20 -11 8 -1 -10 -6 -18
-12 -18 -7 0 -8 11 -4 30 3 16 2 37 -4 47 -10 17 -10 17 -11 1 0 -10 -5 -18
-11 -18 -6 0 -8 15 -4 44 7 43 6 43 -26 50 -18 3 -34 4 -37 2 -7 -7 -6 -49 2
-81 l8 -30 -20 24 c-20 24 -20 24 -26 3 -4 -12 -2 -30 3 -41 13 -24 14 -41 2
-41 -5 0 -12 10 -16 23 -4 13 -8 17 -12 10 -7 -17 -23 -16 -23 1 0 9 -7 12
-20 9 -32 -9 -15 21 20 34 17 6 30 16 30 22 0 6 -7 8 -15 5 -22 -9 -19 22 3
32 9 4 21 8 25 8 20 2 24 31 9 63 -20 42 -29 42 -47 -1 -8 -19 -19 -37 -25
-41 -13 -8 -13 21 -1 44 8 14 6 17 -7 16 -31 -2 -60 -24 -66 -50 -4 -14 -11
-25 -16 -25 -12 0 -12 3 -1 33 8 22 7 23 -15 19 -30 -5 -34 24 -4 33 18 6 19
8 4 30 -21 32 -2 40 26 10 13 -14 35 -25 48 -25 24 0 24 1 9 18 -18 20 -22 42
-9 42 5 0 19 -11 32 -25 31 -33 46 -32 70 8 26 42 25 43 -10 51 -19 3 -30 12
-30 22 0 12 6 15 25 10 20 -5 23 -3 18 10 -3 8 -16 20 -29 25 -13 4 -24 15
-24 23 0 10 6 13 15 10 10 -4 15 0 15 15 0 29 8 26 21 -6z m3022 18 c28 -11
47 -56 47 -109 0 -42 -29 -142 -47 -160 -17 -17 -17 -36 0 -25 6 4 21 9 32 10
11 2 24 8 29 13 6 6 18 10 28 10 10 0 18 5 18 12 0 6 8 4 19 -6 13 -12 29 -57
45 -125 30 -124 32 -151 11 -151 -10 0 -15 10 -15 30 0 27 -23 128 -38 170 -3
8 -4 18 -4 23 1 4 -5 7 -13 7 -8 0 -15 -6 -16 -12 0 -10 -2 -10 -6 0 -4 10 -8
10 -19 1 -8 -6 -14 -8 -14 -5 0 4 -7 0 -16 -8 -8 -9 -24 -16 -35 -16 -10 0
-19 -4 -19 -8 0 -4 -27 -20 -60 -35 -32 -15 -62 -32 -65 -37 -3 -5 4 -28 15
-51 12 -22 19 -43 16 -46 -10 -11 -35 18 -41 48 -4 16 -12 29 -18 29 -23 0
-38 -17 -31 -33 3 -9 1 -17 -4 -17 -15 0 -19 9 -27 63 -7 45 -6 47 17 47 17 0
29 8 37 26 6 15 14 24 17 21 4 -3 17 6 30 20 13 14 24 23 24 20 0 -3 12 5 26
18 15 14 31 25 35 25 13 0 40 70 43 110 2 19 -1 47 -6 63 -9 24 -15 27 -54 27
-24 0 -44 -4 -44 -9 0 -5 -13 -14 -30 -21 -16 -7 -30 -15 -30 -19 -1 -3 -23
-31 -50 -61 l-50 -55 0 52 c0 48 3 54 45 91 58 51 107 75 117 59 6 -9 8 -9 8
0 0 20 55 28 93 14z m-1873 -16 c0 -8 -6 -15 -14 -15 -17 0 -28 14 -19 24 12
12 33 6 33 -9z m1623 1 c6 -15 -11 -36 -29 -36 -14 0 -23 20 -16 38 6 16 39
15 45 -2z m775 -64 c3 -18 -1 -22 -22 -22 -19 0 -26 5 -26 18 0 39 43 43 48 4z
m-865 -53 c4 -30 10 -70 12 -89 2 -19 9 -64 15 -100 20 -117 23 -170 8 -170
-36 1 -40 16 -42 148 -1 105 -4 133 -17 148 -16 18 -24 97 -12 116 12 21 29
-3 36 -53z m-253 -60 c0 -6 8 -8 19 -4 10 3 31 0 47 -7 16 -6 34 -12 40 -13 6
0 18 -5 25 -12 14 -12 19 -13 44 -13 11 0 15 -11 15 -41 0 -32 -3 -39 -12 -32
-44 35 -218 64 -218 37 0 -6 -12 -20 -26 -30 -54 -39 -59 -47 -34 -56 14 -5
20 -14 16 -23 -3 -9 0 -15 9 -15 7 0 26 -5 42 -12 15 -6 36 -10 46 -9 9 1 17
-3 17 -8 0 -6 7 -11 16 -11 8 0 13 4 10 9 -4 5 2 8 11 6 10 -2 18 -4 18 -5 0
-1 61 -10 88 -13 21 -2 22 -30 2 -51 -8 -8 -37 -18 -63 -21 -26 -3 -63 -13
-82 -22 -42 -19 -80 -25 -80 -13 0 5 -7 7 -15 4 -17 -7 -18 -3 -9 21 5 13 8
14 15 3 6 -10 11 -10 21 0 6 6 24 12 39 12 15 0 30 4 34 9 3 6 -3 10 -12 10
-10 0 -27 2 -38 5 -11 2 -22 5 -25 5 -3 1 2 6 10 12 12 8 12 10 -5 8 -45 -3
-65 2 -65 16 0 9 -7 15 -17 13 -42 -7 -56 120 -18 162 10 11 14 20 10 20 -18
0 31 36 70 52 50 20 55 21 55 7z m1415 -120 c4 -6 14 -8 22 -5 8 3 24 -5 37
-19 13 -14 26 -22 29 -18 4 3 7 0 7 -8 0 -23 41 -36 73 -24 19 6 30 6 35 0 19
-28 59 -33 123 -18 35 8 85 16 111 18 41 2 49 -1 64 -23 30 -45 4 -183 -43
-237 -49 -55 -131 -72 -171 -34 -13 11 -26 18 -29 15 -3 -3 3 -13 14 -23 27
-24 64 -88 56 -96 -3 -4 -1 -7 5 -7 7 0 12 -13 12 -29 0 -20 8 -35 26 -48 18
-14 30 -36 40 -78 19 -84 19 -84 -30 -139 -42 -46 -47 -48 -108 -53 -51 -4
-68 -2 -80 11 -9 9 -20 16 -24 16 -16 0 -44 34 -44 55 0 11 -4 25 -10 31 -16
16 14 111 45 144 22 23 26 34 21 57 -4 15 -8 36 -9 46 -1 9 -5 17 -10 17 -5 0
-7 6 -4 13 2 6 1 21 -4 32 -7 19 -8 19 -8 -2 -2 -39 -21 -77 -33 -65 -6 6 -7
16 -2 24 5 7 9 18 9 23 1 6 5 36 9 67 4 31 5 62 1 68 -11 19 -34 -8 -40 -49
-8 -48 -25 -91 -36 -91 -12 0 -12 37 0 44 5 3 11 21 13 40 3 23 0 32 -7 27
-17 -13 -95 -22 -95 -11 0 5 -6 10 -13 10 -18 0 -53 39 -62 70 -12 39 -14 89
-4 96 5 3 9 14 9 26 0 29 27 83 57 113 28 27 38 31 48 14z m-1271 -25 c9 -3
14 -9 11 -13 -2 -4 6 -7 18 -7 19 1 21 -4 19 -29 -2 -16 -5 -31 -7 -33 -2 -2
-22 8 -44 22 -57 37 -55 82 3 60z m-1974 -74 c0 -5 -2 -10 -4 -10 -3 0 -8 5
-11 10 -3 6 -1 10 4 10 6 0 11 -4 11 -10z m4144 -39 c3 -5 -1 -14 -9 -21 -13
-10 -15 -9 -15 9 0 21 14 28 24 12z m-2064 -71 c0 -5 -2 -10 -4 -10 -3 0 -8 5
-11 10 -3 6 -1 10 4 10 6 0 11 -4 11 -10z m-310 -78 c0 -5 7 -15 16 -23 25
-21 54 -86 54 -121 0 -31 -2 -30 -36 32 -53 96 -61 112 -69 145 l-7 30 21 -27
c12 -14 21 -31 21 -36z m294 46 c20 -8 24 -16 20 -34 -3 -12 -2 -30 3 -39 16
-27 3 -72 -23 -84 -39 -18 -42 -15 -40 52 2 34 -1 72 -5 84 -7 19 -5 23 18 32
1 1 13 -4 27 -11z m-654 -173 c10 -12 10 -18 0 -30 -25 -30 -61 -7 -46 30 3 8
12 15 19 15 8 0 20 -7 27 -15z m-1550 -65 c11 -6 25 -8 30 -5 6 3 10 2 10 -3
0 -6 9 -8 20 -5 32 9 26 -40 -9 -68 -25 -20 -28 -26 -20 -53 10 -33 4 -66 -12
-66 -5 0 -9 3 -9 8 0 4 -11 12 -24 18 -20 9 -26 9 -30 -2 -3 -8 0 -11 10 -7 8
3 14 -1 14 -10 0 -8 3 -17 8 -19 4 -1 19 -25 33 -53 15 -27 46 -86 69 -130 43
-79 53 -131 29 -145 -8 -6 -3 -24 20 -64 18 -31 29 -56 25 -56 -4 0 0 -8 8
-17 14 -17 58 -107 72 -147 4 -11 1 -42 -6 -69 -11 -44 -10 -50 5 -58 9 -6 27
-33 41 -60 18 -39 22 -58 16 -80 -11 -38 -20 -50 -31 -44 -5 4 -9 1 -9 -5 0
-6 -4 -9 -9 -5 -5 3 -12 1 -15 -4 -5 -7 -34 -13 -140 -27 -16 -2 -31 -6 -34
-8 -2 -3 -15 -1 -28 4 -28 11 -39 -2 -25 -28 24 -44 31 -213 10 -238 -16 -20
-78 -18 -119 4 -44 24 -58 75 -59 215 -1 31 -5 46 -11 42 -6 -4 -17 -2 -25 5
-7 6 -16 7 -19 2 -5 -8 -206 -9 -236 0 -34 9 -42 20 -37 58 5 47 67 180 84
180 7 0 13 9 13 21 0 11 -4 18 -9 14 -6 -3 -15 3 -20 13 -12 23 -3 92 12 92 6
0 7 3 4 6 -4 4 5 20 18 36 14 16 25 34 25 40 0 9 14 28 60 85 6 7 10 17 10 23
0 5 6 10 13 11 6 0 -2 5 -19 10 -33 9 -51 44 -34 63 4 6 8 13 8 16 -2 11 26
80 32 80 4 0 19 27 34 60 15 33 32 60 36 60 5 0 12 10 16 23 4 12 17 32 30 43
21 20 21 23 6 38 -13 13 -14 23 -5 56 7 28 7 40 0 40 -13 0 -57 40 -57 52 0
21 73 64 90 53 5 -3 25 10 45 29 48 46 59 48 68 15 4 -16 16 -33 27 -39z
m1320 0 c0 -5 -5 -12 -11 -16 -14 -8 -33 11 -25 25 7 11 36 4 36 -9z m-1800
-180 c0 -5 -5 -12 -11 -16 -14 -8 -33 11 -25 25 7 11 36 4 36 -9z m2150 -155
c0 -8 -7 -15 -15 -15 -8 0 -15 7 -15 15 0 8 7 15 15 15 8 0 15 -7 15 -15z
m320 -6 c52 -18 94 -22 215 -24 347 -6 640 -21 663 -34 17 -9 49 -11 121 -6
108 8 146 -3 177 -50 13 -20 19 -23 31 -14 7 7 11 14 9 17 -3 2 -1 13 5 23 12
23 39 25 39 4 0 -8 6 -14 13 -12 6 1 11 -4 10 -10 -2 -7 6 -13 16 -13 11 0 23
-5 26 -10 4 -6 11 -8 16 -5 5 4 9 1 9 -5 0 -7 7 -10 15 -6 8 3 15 1 15 -4 0
-5 13 -5 32 1 40 11 45 6 28 -29 -8 -15 -15 -29 -16 -32 -2 -3 4 -20 13 -37
18 -38 88 -87 114 -80 24 6 27 -28 3 -41 -21 -12 -30 -84 -14 -122 9 -21 27
-38 57 -52 42 -20 44 -20 63 -3 11 10 25 36 31 58 9 34 13 38 32 32 57 -17 66
-17 101 10 20 15 36 33 36 39 0 7 6 21 14 31 13 19 15 19 33 3 21 -19 103 -34
103 -19 0 5 10 13 23 16 12 4 34 19 49 33 l27 25 10 -24 c5 -13 12 -32 15 -42
7 -21 72 -51 92 -43 26 10 16 -40 -11 -54 -63 -34 -135 -170 -90 -170 8 0 15
-7 15 -15 0 -8 -5 -15 -11 -15 -5 0 -7 -5 -3 -11 4 -8 1 -8 -12 -1 -36 19
-148 -15 -138 -41 3 -8 -2 -19 -9 -26 -12 -9 -18 -9 -29 2 -23 24 -42 25 -80
5 -23 -11 -40 -28 -44 -43 -6 -23 -9 -24 -68 -19 -60 5 -61 5 -78 -24 -25 -43
-81 -55 -128 -29 -19 11 -38 23 -41 28 -9 16 -39 -2 -39 -23 0 -11 -13 -39
-30 -63 -36 -52 -38 -78 -7 -119 30 -39 80 -149 64 -139 -7 4 -7 0 2 -10 22
-28 18 -136 -8 -182 -55 -101 -94 -131 -149 -116 -32 9 -33 16 -8 176 30 193
38 345 22 386 -8 20 -24 74 -36 120 -11 46 -34 111 -50 144 -17 34 -30 65 -30
70 0 4 -8 14 -17 22 -17 13 -16 14 5 8 17 -5 22 -2 22 12 0 33 -37 81 -69 88
-16 3 -35 13 -41 20 -8 9 -17 11 -28 6 -10 -5 -29 -14 -44 -20 -24 -9 -28 -16
-28 -51 0 -23 5 -40 11 -40 11 0 8 -79 -5 -150 -2 -14 -5 -28 -5 -32 -1 -4 -8
-5 -16 -2 -8 4 -15 1 -15 -5 0 -6 5 -11 10 -11 6 0 10 -7 10 -15 0 -8 -7 -15
-15 -15 -27 0 -15 -20 13 -21 15 0 21 -3 14 -6 -7 -3 -30 -2 -50 2 -31 6 -34
9 -17 15 29 10 -86 19 -133 10 -29 -6 -31 -8 -11 -9 18 -1 28 -8 32 -21 4 -16
14 -20 49 -21 33 0 38 -2 23 -9 -16 -7 -17 -9 -3 -9 9 -1 26 -15 38 -31 19
-26 20 -33 8 -48 -26 -33 -33 -39 -63 -46 -20 -5 -25 -10 -16 -15 24 -15 -48
-20 -292 -20 -131 -1 -243 -3 -248 -6 -5 -3 -122 -10 -261 -15 -364 -13 -404
-27 -401 -143 1 -62 51 -223 77 -250 6 -7 24 -32 38 -57 15 -25 47 -67 72 -95
36 -40 43 -52 33 -64 -10 -11 -8 -13 10 -7 23 7 63 -11 63 -29 0 -6 12 -16 28
-22 l27 -11 -27 -1 c-16 -1 -28 -5 -28 -11 0 -5 -9 -10 -19 -10 -11 0 -23 5
-26 10 -4 6 5 10 19 10 14 0 26 5 26 10 0 12 -4 12 -52 1 -26 -6 -36 -6 -31 2
4 6 0 8 -10 4 -10 -4 -14 -2 -11 6 2 7 -9 18 -25 25 -17 7 -33 22 -36 33 -4
10 -11 19 -17 19 -6 0 -6 -6 2 -15 7 -8 8 -15 2 -15 -15 0 -35 28 -27 40 3 5
-2 10 -13 10 -11 0 -22 8 -26 18 -5 15 -18 35 -69 106 -13 18 -17 19 -48 6
-19 -8 -37 -18 -40 -22 -9 -13 -88 -16 -126 -5 -40 13 -97 75 -113 123 -7 20
-19 34 -28 35 -9 0 -26 3 -37 5 -11 3 -36 7 -55 10 -19 2 -51 10 -70 16 -19 7
-39 11 -44 10 -5 -2 -12 1 -15 5 -3 5 -17 14 -31 21 -84 41 -170 129 -220 224
-23 44 -43 90 -44 102 -2 11 -6 28 -10 37 -10 24 -12 179 -3 212 7 26 6 28
-25 26 -18 -1 -42 2 -52 6 -14 6 -17 5 -12 -3 4 -7 1 -12 -8 -12 -19 0 -26 20
-14 43 6 12 21 17 48 17 21 0 42 5 45 10 4 6 10 8 14 5 5 -2 16 4 26 15 18 20
17 20 -18 20 -20 0 -38 4 -42 10 -3 5 -12 7 -19 4 -18 -7 -76 23 -76 39 0 6 4
17 8 22 10 14 82 17 82 3 0 -6 7 -5 17 3 11 10 14 10 9 2 -10 -18 9 -16 24 2
7 8 27 17 46 21 20 4 31 10 27 17 -4 6 0 8 11 4 9 -4 15 -3 12 1 -3 5 5 15 16
23 12 8 33 26 47 40 37 36 86 69 104 69 10 0 16 15 20 53 17 161 56 239 95
192 9 -11 25 -19 35 -17 17 4 77 -48 77 -67 0 -6 7 -8 16 -4 9 3 28 -7 50 -28
28 -27 37 -31 44 -19 10 16 97 15 116 -1 7 -6 22 -5 40 2 16 7 45 14 64 16 64
6 70 7 70 15 0 4 6 5 14 2 10 -4 21 9 34 38 21 46 48 78 86 103 20 13 41 19
116 34 3 0 34 -9 70 -20z m-2428 -143 c22 -32 -6 -81 -39 -69 -29 11 -42 28
-33 43 5 8 6 18 3 24 -3 5 -1 6 4 3 6 -4 13 0 17 8 6 16 35 10 48 -9z m5802
-452 c20 -8 21 -60 3 -100 -20 -45 -51 -94 -59 -94 -5 0 -8 -5 -8 -11 0 -6
-21 -34 -47 -62 -64 -67 -72 -75 -127 -126 -33 -31 -44 -46 -35 -51 18 -12 20
-61 4 -93 -19 -37 -6 -64 41 -83 19 -8 32 -19 29 -24 -3 -6 2 -10 13 -10 19 0
35 -23 48 -70 4 -14 12 -28 18 -32 8 -6 7 -11 -3 -17 -9 -6 -10 -11 -2 -15 15
-9 -1 -146 -17 -146 -4 0 -18 -19 -32 -41 -16 -26 -40 -48 -65 -59 -46 -21
-68 -28 -76 -26 -3 0 -12 -4 -20 -10 -8 -7 -29 -15 -47 -19 -18 -4 -51 -19
-74 -33 -22 -15 -45 -27 -52 -27 -6 -1 -10 -6 -9 -13 2 -7 -2 -12 -7 -12 -6 0
-10 -5 -10 -11 0 -6 -7 -17 -15 -25 -8 -8 -18 -21 -22 -27 -5 -7 -20 -22 -36
-34 -36 -28 -74 -13 -75 29 0 16 3 26 9 23 5 -4 9 4 8 17 0 13 0 50 0 83 1
106 -17 157 -67 199 -13 10 -21 25 -18 33 3 7 -1 16 -8 19 -19 7 -46 77 -46
119 0 104 88 217 178 229 26 4 64 9 85 12 22 3 37 2 37 -4 0 -11 18 -11 37 1
7 4 21 3 32 -2 16 -9 20 -6 26 17 10 42 52 91 72 86 13 -4 18 1 19 18 5 67 53
186 93 230 31 34 41 47 41 58 0 5 4 10 8 10 4 0 25 16 46 35 60 54 98 71 130
59z m-2377 -270 c-3 -3 -12 -4 -19 -1 -8 3 -5 6 6 6 11 1 17 -2 13 -5z m837
-351 c-5 -17 -5 -17 6 0 11 18 46 25 35 7 -3 -5 -2 -10 4 -10 5 0 11 5 13 11
4 11 45 -5 58 -23 3 -4 18 -12 33 -17 16 -6 25 -15 22 -21 -3 -5 1 -10 9 -10
9 0 16 -3 16 -7 0 -5 11 -21 25 -37 14 -16 25 -35 25 -43 0 -7 5 -13 10 -13 6
0 10 -11 10 -25 0 -14 5 -25 10 -25 6 0 10 -6 10 -12 1 -7 9 -31 20 -53 11
-22 19 -46 20 -53 0 -8 7 -39 16 -69 15 -52 17 -54 31 -34 8 12 19 19 24 16 5
-4 9 1 9 9 0 10 6 13 17 9 10 -4 14 -2 9 5 -8 13 17 27 66 36 33 6 39 4 60
-24 27 -37 26 -95 -3 -146 -33 -60 -71 -114 -80 -114 -5 0 -9 -5 -9 -11 0 -7
-12 -22 -27 -34 l-26 -23 12 -90 c19 -136 13 -197 -21 -234 -15 -16 -33 -31
-40 -32 -7 -2 -20 -6 -28 -9 -8 -3 -28 -10 -45 -15 -32 -10 -31 -4 -19 -116 4
-32 2 -51 -6 -56 -7 -4 1 -19 24 -42 72 -72 76 -161 9 -196 -47 -25 -87 -4
-97 50 -2 15 -7 32 -10 37 -4 5 -2 12 2 15 5 3 7 17 4 31 -2 15 0 25 7 25 6 0
11 7 11 15 0 28 -85 -23 -106 -64 -10 -20 -17 -40 -16 -44 3 -10 -44 -57 -56
-57 -6 0 -12 -7 -16 -15 -3 -8 -13 -15 -21 -15 -10 0 -13 5 -9 13 6 10 4 10
-7 0 -17 -16 -43 -17 -33 -1 4 7 3 8 -4 4 -16 -10 -68 22 -81 50 -6 14 -18 22
-30 21 -11 -1 -18 -3 -15 -6 5 -6 -65 -40 -83 -41 -7 0 -13 -5 -13 -11 0 -6
-9 -9 -19 -6 -16 4 -25 -8 -51 -65 -18 -38 -47 -89 -66 -114 -19 -24 -34 -47
-34 -50 0 -2 -17 -28 -39 -57 -42 -57 -75 -87 -161 -143 -73 -47 -75 -46 -130
81 -17 41 -19 56 -10 79 8 23 7 34 -5 53 -11 16 -15 40 -13 71 l3 46 55 18
c34 10 70 15 93 12 49 -8 64 6 73 64 3 26 13 67 20 91 8 24 11 47 6 50 -5 3
-17 20 -27 38 -16 28 -24 32 -59 32 -53 -1 -144 11 -172 21 -16 6 -21 15 -17
29 5 18 7 18 41 4 20 -8 38 -11 39 -6 5 13 123 -8 123 -21 0 -6 4 -5 9 3 7 11
15 7 40 -20 17 -18 31 -38 31 -43 0 -5 2 -7 5 -4 10 10 -27 88 -41 88 -8 0
-14 4 -14 9 0 9 12 14 110 48 39 14 62 28 119 75 30 25 -31 192 -82 222 -17 9
-25 20 -21 27 4 8 3 9 -5 5 -7 -5 -17 5 -26 28 -8 19 -19 37 -25 41 -21 13 -9
24 16 15 14 -6 23 -6 19 -1 -8 15 13 61 29 61 18 0 28 -27 13 -34 -7 -4 3 -4
21 -1 25 3 34 0 39 -13 4 -9 15 -25 24 -35 9 -10 15 -27 12 -37 -3 -12 3 -22
17 -30 18 -9 20 -14 9 -20 -11 -7 -11 -13 1 -34 13 -25 6 -51 -8 -30 -4 6 -20
13 -35 16 -28 5 -28 5 16 -41 73 -76 97 -105 103 -123 3 -10 9 -18 14 -18 5 0
11 -8 14 -17 7 -22 56 -27 56 -7 0 8 7 14 15 14 8 0 15 5 15 11 0 5 4 8 8 5
13 -8 39 13 26 22 -5 4 -16 32 -23 63 -6 31 -21 65 -31 74 -26 24 -68 99 -79
144 -36 134 -34 131 -100 193 -65 60 -163 118 -201 118 -11 0 -20 5 -20 11 0
6 -9 8 -21 4 -11 -4 -37 -8 -58 -10 -22 -1 -44 -6 -50 -9 -6 -4 -16 -4 -21 -1
-6 3 -13 -1 -16 -10 -4 -9 -13 -14 -20 -11 -8 3 -14 1 -14 -4 0 -6 -7 -10 -15
-10 -8 0 -15 -4 -15 -10 0 -5 -7 -10 -16 -10 -8 0 -12 -5 -9 -11 9 -14 -24
-49 -47 -49 -10 0 -18 2 -18 4 0 2 -3 11 -6 20 -4 10 -1 16 9 16 10 0 13 7 10
20 -4 14 0 20 11 20 10 0 14 5 10 11 -9 16 18 31 29 16 5 -8 7 -5 5 8 -2 12 3
20 12 20 8 0 21 4 28 9 26 16 110 34 123 25 7 -4 20 -4 29 1 19 10 154 -32
177 -56 8 -8 19 -14 24 -14 5 0 28 -17 52 -38 23 -20 52 -45 64 -55 l21 -19
-4 44 c-8 76 -5 242 5 276 5 18 10 35 10 37 -1 21 14 65 22 65 5 0 9 4 9 10 0
18 35 90 43 90 11 0 37 26 37 37 0 4 15 15 33 22 17 8 38 21 45 28 7 7 22 13
32 13 10 0 22 5 25 10 10 17 25 11 19 -7z m-3284 -108 c0 -8 -4 -15 -10 -15
-5 0 -10 7 -10 15 0 8 5 15 10 15 6 0 10 -7 10 -15z m505 -185 c-3 -4 3 -6 13
-3 16 4 19 -2 20 -36 3 -57 -13 -90 -66 -140 -50 -46 -87 -65 -109 -57 -8 3
-11 1 -8 -4 3 -5 -6 -12 -20 -16 -38 -10 -14 -29 31 -25 22 1 34 -1 30 -7 -3
-5 1 -12 9 -16 8 -3 15 -1 15 4 0 6 7 10 15 10 8 0 12 -6 9 -14 -4 -10 2 -12
20 -9 19 4 26 1 26 -10 0 -8 5 -17 12 -19 9 -3 9 -12 -1 -36 -9 -22 -22 -33
-44 -38 -18 -3 -37 -11 -44 -16 -28 -23 -193 15 -193 44 0 6 -3 8 -7 5 -3 -4
-18 3 -31 15 -18 17 -26 19 -29 10 -4 -10 -8 -10 -21 0 -12 10 -14 10 -8 1 5
-9 0 -13 -13 -13 -28 0 -27 -5 9 -38 17 -16 30 -34 30 -40 0 -6 5 -12 11 -14
6 -2 13 -24 16 -48 4 -37 1 -49 -15 -63 -29 -27 -86 -26 -115 1 -13 12 -28 22
-34 22 -5 0 -35 27 -67 61 -43 47 -63 61 -84 61 -15 -1 -41 -1 -58 -1 -21 -1
-31 -6 -31 -16 0 -12 3 -12 16 -2 12 10 14 9 8 -5 -5 -13 -1 -18 12 -18 10 0
23 -11 29 -25 6 -14 17 -24 24 -23 8 2 13 -6 12 -19 0 -13 3 -23 7 -23 15 0 0
-64 -18 -74 -28 -17 -73 -25 -79 -14 -3 5 -12 7 -20 4 -8 -3 -14 1 -14 9 0 8
-3 14 -7 13 -31 -6 -93 85 -93 137 0 36 -11 57 -24 46 -11 -9 -46 -16 -56 -11
-3 1 -20 3 -37 5 -32 3 -43 -7 -23 -20 6 -4 8 -11 5 -16 -4 -5 -1 -9 4 -9 6 0
11 -9 11 -20 0 -11 5 -20 10 -20 15 0 3 -92 -13 -102 -30 -19 -69 -7 -112 33
-25 23 -42 46 -39 50 3 5 1 9 -4 9 -12 0 -25 55 -23 96 2 26 -3 33 -29 44 -17
7 -35 21 -40 31 -13 24 -12 32 3 26 53 -20 54 -20 60 28 7 48 8 50 76 127 32
35 50 48 64 44 13 -3 17 0 13 10 -4 9 1 14 15 14 11 0 18 -4 15 -9 -4 -5 2 -7
13 -4 26 7 34 -21 21 -83 -11 -51 -40 -86 -125 -149 -19 -14 -19 -14 10 -16
17 -1 41 -3 55 -5 14 -3 37 -5 52 -6 15 -1 25 -5 22 -10 -3 -4 -1 -8 5 -8 13
0 22 34 20 75 -2 42 7 97 24 136 19 45 71 93 91 86 9 -4 16 -2 16 3 0 22 30
-5 41 -37 14 -45 -3 -139 -36 -199 -18 -32 -21 -44 -11 -47 8 -3 19 0 25 6 8
8 11 8 11 -1 0 -9 5 -10 19 -2 11 5 33 10 49 10 28 0 28 1 26 53 -4 64 14 147
32 154 8 3 12 9 9 14 -3 4 8 15 25 24 17 9 28 19 26 24 -3 4 15 9 39 9 40 2
45 0 51 -24 4 -14 4 -45 2 -68 -6 -47 -46 -146 -60 -146 -4 0 -8 -4 -8 -10 0
-5 14 -4 33 4 17 8 51 19 73 25 l41 11 7 63 c14 124 49 228 82 241 47 18 56
-62 21 -183 -26 -87 -22 -94 28 -61 17 11 36 20 44 20 7 0 24 11 36 24 13 14
24 23 26 21 2 -2 5 15 7 38 4 75 52 145 104 151 3 1 10 4 14 8 9 10 26 -1 19
-12z m1221 -371 c3 -5 -13 -9 -35 -9 -37 0 -50 8 -36 22 7 7 65 -3 71 -13z
m-710 -81 c-7 -89 -13 -128 -26 -192 -6 -27 -8 -51 -5 -54 3 -3 20 11 39 31
19 20 39 37 45 37 6 0 11 5 11 10 0 6 6 10 14 10 7 0 19 7 26 15 7 9 15 13 18
10 3 -3 11 0 19 6 7 6 13 8 13 5 0 -12 -27 -36 -40 -36 -6 0 -8 -5 -5 -11 6
-9 -32 -45 -45 -43 -3 0 -21 -15 -40 -35 -20 -20 -27 -29 -15 -21 11 8 31 21
45 29 19 11 16 4 -16 -35 -22 -27 -51 -64 -63 -82 -13 -18 -25 -31 -28 -29 -9
10 -74 -15 -96 -37 -65 -66 -98 -179 -97 -339 0 -159 0 -157 20 -157 10 0 25
-6 32 -12 7 -7 36 -13 65 -13 l52 -1 -25 41 c-14 22 -30 51 -36 65 -6 14 -19
42 -30 62 -13 26 -19 58 -19 106 0 75 6 93 76 200 39 60 61 79 51 45 -3 -10
-8 -39 -11 -65 -7 -45 -6 -47 26 -64 19 -10 61 -25 94 -34 l60 -16 -3 -62 c-4
-58 -2 -62 18 -62 12 0 30 -5 40 -10 13 -7 21 -7 25 0 8 13 35 13 35 -1 0 -6
-8 -13 -18 -16 -14 -3 -18 -11 -14 -29 3 -19 0 -24 -16 -24 -11 0 -26 -7 -33
-16 -12 -15 -11 -16 11 -9 14 4 36 17 49 29 l23 21 -7 -25 c-9 -32 -44 -90
-53 -89 -19 3 -33 -2 -28 -10 8 -12 53 -2 67 15 6 8 20 14 31 14 16 0 18 5 13
33 -3 17 -7 50 -10 72 -2 22 -11 58 -19 80 -8 22 -15 50 -16 62 0 12 -6 23
-12 26 -10 3 -10 7 1 20 7 10 17 17 21 17 9 0 30 -70 30 -102 0 -13 5 -29 10
-34 6 -6 13 -40 16 -75 3 -46 10 -69 25 -85 14 -15 19 -29 14 -43 -7 -22 10
-30 18 -8 10 27 26 -11 32 -78 12 -122 12 -129 0 -182 -7 -29 -10 -55 -7 -57
13 -13 -59 -18 -110 -7 -83 17 -147 47 -188 87 l-35 36 -6 -31 c-12 -59 -53
-82 -88 -49 -22 20 -28 62 -11 73 6 3 10 21 10 38 l0 32 -72 2 c-126 2 -141 9
-133 60 3 19 9 42 14 51 5 10 5 45 -1 82 -20 147 9 335 64 413 l21 29 -44 -6
c-24 -3 -53 -8 -65 -9 -11 -2 -24 -6 -30 -9 -22 -13 -63 -17 -69 -8 -4 6 -15
8 -26 5 -11 -4 -19 -2 -19 4 0 6 -7 11 -15 11 -17 0 -26 46 -21 115 2 28 5 52
6 55 1 3 2 20 2 38 1 39 46 83 78 75 12 -3 20 0 20 7 0 6 8 9 18 6 9 -3 30 -7
46 -10 16 -3 32 -9 35 -14 3 -5 14 -8 24 -6 12 1 17 -2 13 -11 -3 -9 0 -12 10
-8 7 3 14 1 14 -5 0 -5 11 -13 25 -16 14 -4 25 -10 25 -15 0 -5 10 -7 22 -3
13 3 19 1 15 -5 -4 -6 3 -13 16 -15 18 -3 23 0 23 16 1 25 14 212 18 243 3 30
25 53 49 53 18 0 19 -4 13 -72z m1698 -10 c18 -26 17 -29 -10 -22 -11 3 -20
14 -21 25 -2 25 12 24 31 -3z m1829 -4 c4 -8 12 -14 17 -14 12 0 23 -9 140
-120 52 -49 96 -90 97 -90 10 0 133 -125 133 -136 0 -7 3 -14 8 -16 21 -9 53
-106 50 -151 -2 -26 -6 -47 -10 -47 -5 0 -8 -9 -8 -19 0 -11 -7 -26 -15 -35
-8 -8 -15 -19 -15 -25 0 -6 -4 -11 -8 -11 -5 0 -19 -9 -32 -20 -15 -13 -27
-17 -33 -11 -6 6 -17 2 -31 -10 -18 -18 -21 -18 -24 -4 -3 15 -5 14 -18 -2
-11 -14 -15 -15 -22 -5 -7 11 -11 10 -16 -3 -4 -13 -10 -14 -19 -7 -7 6 -22 9
-32 8 -35 -6 -135 67 -135 99 0 8 -5 17 -10 20 -6 4 -9 21 -7 38 3 30 6 32 43
32 21 0 62 -5 90 -11 27 -6 57 -7 65 -4 45 21 54 30 61 59 7 24 5 36 -7 47 -8
8 -18 26 -21 40 -8 33 -51 76 -96 97 -20 10 -45 27 -55 40 -10 12 -31 28 -46
36 -15 8 -48 34 -74 58 -25 24 -55 46 -68 49 -12 3 -28 17 -34 30 -14 32 -14
34 5 34 8 0 12 4 9 10 -10 16 14 50 36 50 12 0 17 4 13 11 -4 8 4 9 27 4 19
-4 38 -14 42 -21z m-2880 -108 c28 -8 65 -13 80 -11 32 4 91 46 107 76 11 19
12 19 47 -12 49 -43 92 -59 155 -59 60 0 161 28 214 59 19 12 37 21 38 21 2 0
-3 -18 -10 -40 -8 -22 -19 -70 -25 -108 -10 -58 -9 -78 5 -125 9 -32 21 -57
26 -57 8 0 5 -75 -6 -130 -1 -8 -3 -17 -3 -20 -1 -3 -6 2 -12 10 -8 12 -9 9
-5 -12 7 -32 -3 -90 -15 -83 -17 11 15 -218 37 -260 17 -33 18 -38 2 -29 -8 5
-9 -2 -5 -26 4 -18 7 -39 7 -47 0 -8 3 -12 8 -10 4 3 7 -13 8 -36 1 -32 -5
-46 -25 -64 l-26 -23 27 9 27 10 -25 -50 c-38 -75 -49 -153 -37 -256 6 -49 14
-97 19 -107 7 -19 7 -19 -18 0 -18 13 -22 22 -14 27 6 6 3 6 -8 3 -10 -4 -26
0 -35 8 -35 31 -143 67 -220 73 -74 5 -201 -10 -226 -27 -5 -3 -32 -15 -60
-25 -27 -10 -73 -33 -102 -52 -29 -18 -54 -33 -56 -33 -3 0 2 28 9 63 7 34 13
87 13 117 1 59 -24 190 -36 199 -5 3 -17 23 -28 44 -10 21 -32 49 -48 63 l-28
24 19 27 c24 35 59 143 68 208 9 74 -10 160 -56 249 l-41 79 24 26 c82 90 108
200 82 350 l-8 43 52 -35 c28 -20 75 -42 104 -51z m-2677 -164 c7 -4 16 -23
22 -43 7 -28 5 -55 -14 -130 -13 -52 -27 -101 -32 -109 -11 -18 -4 -42 9 -34
14 8 49 -25 49 -46 0 -10 6 -32 13 -49 13 -31 15 -32 88 -35 53 -2 83 -8 104
-22 17 -10 45 -28 63 -39 17 -11 32 -25 32 -32 0 -7 10 -32 22 -55 29 -55 34
-160 10 -224 -23 -61 -100 -146 -159 -174 -65 -31 -173 -32 -247 -1 -48 19
-100 66 -124 112 -33 61 -41 171 -17 225 45 102 67 141 90 158 23 17 25 24 20
60 -4 23 -2 53 3 67 8 20 6 40 -9 84 -24 72 -24 145 -2 210 26 74 50 97 79 77z
m3354 -122 c0 -5 -4 -10 -10 -10 -5 0 -10 5 -10 10 0 6 5 10 10 10 6 0 10 -4
10 -10z m2012 -510 c14 0 60 -49 54 -58 -3 -6 6 -13 20 -16 15 -4 24 -10 20
-13 -3 -3 3 -12 14 -20 11 -8 20 -21 20 -29 0 -8 4 -14 10 -14 14 0 42 -58 34
-71 -3 -6 3 -13 14 -16 12 -3 28 -21 38 -41 9 -21 23 -45 32 -54 8 -10 11 -18
6 -18 -5 0 -3 -4 4 -8 9 -6 10 -16 4 -32 -7 -20 -5 -28 14 -43 13 -10 24 -23
24 -28 0 -6 12 -21 28 -34 17 -15 22 -24 13 -25 -19 0 18 -29 37 -30 18 0 38
-21 47 -50 4 -14 14 -32 22 -41 17 -20 3 -97 -21 -115 -23 -17 -20 -29 19 -65
19 -18 33 -35 30 -37 -2 -3 6 -13 18 -23 15 -13 18 -18 8 -19 -12 0 -12 -2 1
-12 52 -40 90 -204 56 -239 -8 -8 -16 -18 -19 -24 -5 -13 -90 -14 -108 -1 -8
6 -22 23 -31 38 l-17 28 -1 -35 c-2 -39 -17 -75 -33 -75 -15 0 -48 42 -49 62
0 22 -27 17 -46 -11 -20 -27 -70 -26 -68 1 1 10 -2 15 -7 12 -5 -3 -12 2 -15
10 -9 23 -17 20 -37 -13 -14 -25 -23 -29 -48 -26 -36 4 -55 19 -75 57 -21 40
-36 35 -18 -7 18 -45 20 -260 2 -272 -25 -15 -88 -23 -88 -11 0 5 -5 6 -10 3
-12 -7 -50 3 -49 13 1 4 0 9 -1 12 -2 3 -4 61 -6 130 -1 69 -3 131 -3 138 -1
15 -31 16 -31 1 0 -20 -41 -69 -58 -69 -21 0 -52 34 -52 58 -1 15 -2 15 -15
-3 -50 -68 -84 -81 -124 -46 -11 10 -28 36 -35 57 -8 22 -15 33 -15 25 -1 -17
-48 -61 -65 -61 -28 0 -84 70 -71 90 13 22 -16 18 -42 -6 -16 -15 -29 -21 -31
-14 -3 8 -11 7 -26 -3 -50 -34 -87 28 -67 115 11 46 47 123 78 164 13 17 23
36 23 42 0 7 7 12 17 12 9 0 13 3 10 7 -4 3 -2 12 4 19 7 9 5 14 -10 19 -25 8
-27 33 -7 90 23 64 39 90 84 133 23 22 42 39 42 37 0 -2 15 10 33 26 17 16 46
39 64 51 26 19 30 27 26 53 -7 47 13 81 109 182 32 34 55 53 62 53 4 0 19 11
33 24 14 13 37 30 52 38 14 7 30 19 34 25 4 7 15 13 23 13 8 0 13 4 9 9 -3 6
2 14 12 19 13 8 26 4 52 -14 20 -13 39 -24 43 -24z m-4135 -151 c8 -8 16 -7
31 2 18 11 24 10 43 -6 12 -11 19 -14 15 -7 -11 19 8 15 60 -13 26 -14 52 -25
59 -25 7 0 20 -9 29 -19 13 -15 14 -20 4 -24 -9 -4 -9 -6 3 -6 26 -2 67 -70
73 -123 1 -3 4 -10 9 -14 4 -4 7 -22 7 -40 0 -18 4 -34 10 -36 5 -1 10 -47 11
-101 1 -92 3 -99 26 -114 14 -9 35 -17 46 -18 12 0 59 -25 105 -55 64 -41 82
-58 79 -72 -3 -10 -2 -18 3 -18 4 0 10 -18 12 -40 3 -33 -1 -46 -24 -70 -28
-31 -38 -32 -185 -31 -21 1 -22 -3 -18 -47 5 -59 15 -113 25 -132 4 -8 7 -29
6 -47 0 -17 2 -29 6 -27 4 3 7 -12 7 -33 -2 -57 18 -170 32 -188 16 -21 -52
-132 -73 -119 -5 3 -8 1 -8 -3 0 -10 -53 -43 -69 -43 -6 0 -11 6 -11 14 0 9
-9 12 -28 10 -15 -2 -32 0 -38 4 -12 7 -38 61 -49 101 -6 20 -5 23 11 17 18
-6 18 -5 1 8 -12 9 -18 29 -20 64 -1 27 -5 45 -8 40 -4 -6 -11 -3 -17 9 -8 15
-19 18 -47 15 -20 -2 -38 -9 -40 -16 -8 -24 -10 -154 -3 -150 11 7 10 -18 -1
-35 -6 -9 -6 -22 -1 -32 6 -11 4 -22 -9 -36 -10 -10 -24 -29 -30 -41 -6 -12
-24 -24 -39 -27 -15 -4 -35 -10 -44 -15 -23 -13 -94 11 -90 29 2 8 -7 20 -18
28 -12 9 -19 21 -16 29 3 8 -1 17 -10 21 -8 3 -14 15 -13 27 0 11 0 24 -1 29
-6 19 -5 33 5 40 7 6 6 10 -3 14 -6 2 -10 8 -7 13 3 5 1 20 -5 34 -6 16 -6 26
0 26 6 0 6 10 0 26 -13 33 -13 47 1 38 7 -4 7 1 -1 16 -9 18 -9 24 0 30 9 5 9
9 1 14 -6 4 -9 11 -6 16 3 5 1 12 -5 15 -8 5 -8 11 0 20 7 8 9 18 6 23 -3 5
-6 41 -7 80 -1 40 -6 72 -12 72 -5 0 -24 -15 -41 -33 -49 -52 -120 -78 -177
-65 -31 7 -71 39 -65 54 3 8 -1 14 -11 14 -13 0 -13 3 -3 15 10 12 10 18 0 30
-9 11 -9 22 -1 48 11 32 51 81 51 62 0 -5 10 1 23 13 21 20 25 22 48 22 5 0 8
4 4 9 -3 5 3 12 14 16 11 3 33 21 50 40 26 30 28 37 18 59 -7 14 -15 26 -19
26 -5 0 -8 6 -8 13 0 7 -5 18 -12 25 -12 12 -13 18 -23 112 -12 109 -12 145
-1 165 5 11 9 23 8 28 -1 4 3 7 8 7 6 0 8 11 4 25 -5 19 -2 25 10 25 10 0 13
6 10 15 -6 15 33 64 51 65 6 0 25 16 44 35 19 19 40 35 48 35 8 0 27 7 41 15
15 8 50 19 77 24 70 12 70 12 82 0z m2718 -114 c11 -4 27 -9 35 -9 31 -2 13
-57 -35 -102 -25 -24 -50 -44 -55 -44 -11 0 -4 108 10 144 5 15 13 25 17 23 5
-2 17 -8 28 -12z m-139 -138 c19 -18 34 -38 34 -45 0 -7 7 -15 15 -18 8 -4 15
-12 15 -20 0 -8 7 -14 16 -14 8 0 13 4 10 9 -3 5 1 14 9 21 12 10 15 9 15 -4
0 -13 5 -16 20 -11 13 4 20 2 20 -7 1 -9 4 -9 13 3 7 9 34 18 63 22 45 5 53 3
57 -13 4 -15 -20 -58 -70 -125 -4 -6 -9 -17 -11 -25 -2 -8 -8 -16 -13 -18 -13
-5 -11 -43 4 -72 8 -14 20 -47 27 -73 8 -26 18 -47 22 -47 4 0 8 -9 8 -21 0
-18 -4 -20 -27 -14 -16 3 -29 10 -31 15 -2 5 -9 7 -17 4 -7 -3 -16 -1 -20 5
-3 6 -15 11 -26 11 -10 0 -19 4 -19 9 0 9 -42 24 -72 25 -9 0 -28 -13 -42 -29
-14 -17 -30 -30 -35 -30 -4 0 -22 -15 -39 -32 -16 -18 -34 -33 -40 -33 -15 0
-22 54 -16 130 5 59 4 70 -9 70 -35 0 -67 23 -67 48 0 21 2 22 15 12 8 -7 15
-9 15 -4 0 4 5 3 12 -4 7 -7 23 -12 36 -12 l25 0 -6 -95 c-3 -52 -2 -95 1 -95
4 0 18 12 31 25 13 14 29 25 37 25 8 0 13 4 12 8 -2 5 11 21 29 36 l32 27 55
-19 c30 -10 61 -24 69 -30 8 -7 17 -9 20 -5 4 3 9 -2 13 -11 3 -9 10 -13 15
-10 5 3 2 15 -6 27 -8 12 -15 31 -15 42 0 11 -9 34 -19 51 -19 31 -19 32 6 83
14 28 29 51 34 51 5 0 9 5 9 10 0 6 9 20 20 32 11 12 18 23 16 25 -7 8 -170
-17 -176 -27 -7 -11 -76 79 -72 93 1 5 -2 6 -7 2 -6 -3 -16 3 -23 15 -7 11
-16 20 -20 20 -3 0 -15 -24 -25 -52 -19 -57 -20 -61 -22 -95 0 -13 -6 -23 -11
-23 -6 0 -20 -9 -32 -20 -12 -11 -28 -20 -35 -20 -7 0 -13 -4 -13 -10 0 -5 -9
-10 -20 -10 -11 0 -20 6 -20 14 0 7 9 16 20 19 11 3 20 11 20 19 0 8 15 20 34
26 27 10 35 19 41 48 3 20 11 48 17 63 13 30 14 37 16 69 2 30 30 23 78 -21z
m-216 -14 c8 -7 26 -22 40 -32 21 -16 23 -21 11 -35 -10 -12 -26 -16 -54 -14
-34 3 -42 7 -50 31 -13 40 -2 78 21 70 9 -3 24 -12 32 -20z m-1470 -93 c0 -5
-4 -10 -10 -10 -5 0 -10 5 -10 10 0 6 5 10 10 10 6 0 10 -4 10 -10z m3625 -20
c3 -5 1 -10 -4 -10 -6 0 -11 5 -11 10 0 6 2 10 4 10 3 0 8 -4 11 -10z m-1557
-127 c2 -24 -1 -50 -6 -59 -8 -14 -10 -14 -25 0 -9 9 -20 15 -24 14 -17 -6
-74 25 -69 38 3 7 0 15 -7 18 -15 6 13 28 29 22 6 -2 17 0 25 5 8 5 28 8 44 7
28 -3 30 -6 33 -45z m-1219 -152 c12 -8 11 -15 -10 -45 -22 -33 -109 -105
-109 -91 0 15 33 83 56 112 26 34 39 39 63 24z m948 -168 c2 -14 -1 -23 -9
-24 -7 0 -28 -2 -45 -3 -28 -3 -33 0 -33 18 1 22 17 101 26 126 6 16 54 -76
61 -117z m-3901 -3 c6 -58 40 -83 46 -33 2 14 9 28 16 31 19 6 15 -43 -7 -86
-14 -28 -17 -42 -9 -56 9 -17 11 -16 27 7 12 18 21 23 31 17 10 -6 11 -12 3
-22 -5 -7 -15 -27 -21 -44 -10 -30 -9 -32 26 -42 50 -16 74 5 61 51 -12 41
-12 70 0 62 5 -3 12 -19 16 -36 6 -25 9 -28 22 -18 11 10 13 27 8 78 -7 78 10
67 21 -13 l6 -49 14 31 c7 18 20 32 28 32 16 0 13 -23 -7 -48 -8 -10 -5 -12
14 -8 27 7 55 -6 46 -21 -4 -5 -25 -10 -47 -11 -23 -1 -49 -6 -58 -12 -15 -9
-14 -10 6 -16 12 -3 22 -11 22 -16 0 -5 4 -7 9 -4 5 3 14 -1 21 -9 20 -24 -15
-30 -62 -12 -22 9 -44 14 -49 12 -10 -7 24 -108 39 -113 6 -2 20 15 32 37 20
40 40 54 40 28 0 -7 -7 -23 -16 -35 -15 -21 -14 -22 20 -22 39 0 68 9 62 19
-3 4 6 20 20 37 27 31 27 27 8 -36 -6 -17 -2 -20 30 -20 24 0 36 -5 36 -14 0
-16 -53 -31 -70 -21 -5 3 -10 1 -10 -4 0 -6 5 -11 10 -11 6 0 10 -6 10 -14 0
-8 6 -16 13 -19 9 -4 9 -7 0 -18 -11 -11 -16 -9 -28 7 -9 10 -20 28 -24 39 -8
19 -20 22 -73 16 -4 -1 -3 -13 2 -27 6 -14 10 -32 10 -40 0 -27 -17 -14 -33
26 -20 53 -56 56 -79 8 -20 -42 -8 -76 32 -91 39 -15 51 -41 15 -35 -17 4 -25
1 -25 -8 0 -8 5 -14 11 -14 5 0 7 -4 4 -10 -3 -5 6 -12 20 -16 14 -3 25 -10
25 -15 0 -5 7 -6 15 -3 10 4 15 0 15 -14 0 -15 -5 -18 -25 -14 -22 4 -25 1
-25 -24 l-1 -29 -16 30 c-16 29 -16 29 -24 7 -5 -12 -13 -22 -20 -22 -7 0 -8
7 -4 18 4 9 8 22 9 27 1 6 4 15 8 20 3 6 -2 26 -12 45 l-19 35 -7 -34 c-6 -27
-9 -30 -16 -17 -7 12 -5 30 6 55 19 50 6 68 -51 73 -40 3 -43 1 -53 -26 -8
-24 -6 -37 8 -67 24 -47 11 -76 -12 -30 -20 37 -27 39 -42 7 -9 -18 -7 -31 6
-58 17 -35 16 -58 -2 -58 -5 0 -8 6 -6 12 3 7 -2 19 -10 27 -12 13 -15 12 -24
-2 -12 -23 -31 -11 -23 14 6 17 4 18 -19 7 -27 -12 -43 -7 -32 11 4 5 27 20
51 32 45 23 53 33 35 44 -5 3 -10 1 -10 -5 0 -18 -23 -6 -26 14 -2 12 10 23
39 36 62 28 68 45 37 102 -24 45 -27 47 -46 34 -11 -8 -29 -35 -39 -60 -11
-25 -22 -46 -26 -46 -7 0 4 71 15 88 3 6 1 14 -5 18 -7 4 -9 3 -6 -3 4 -6 -9
-13 -32 -17 -35 -5 -43 -12 -62 -52 -13 -25 -28 -48 -33 -51 -9 -6 -4 35 9 68
5 13 0 16 -24 13 -25 -3 -31 0 -31 16 0 19 12 24 48 23 10 -1 9 4 -3 21 -52
71 -42 97 16 39 31 -32 46 -40 70 -38 41 3 45 11 15 30 -14 10 -26 26 -26 36
0 24 11 24 36 2 58 -51 63 -55 83 -48 17 5 61 70 61 89 0 3 -18 15 -39 26 -46
23 -53 31 -42 48 6 10 13 10 34 1 15 -7 30 -9 33 -6 11 10 -17 37 -53 52 -33
14 -42 36 -24 64 6 9 11 10 15 2 4 -6 11 -11 16 -11 10 0 7 41 -5 59 -5 9 -2
12 11 9 11 -2 20 -10 20 -18z m2884 -170 c0 -5 -4 -10 -10 -10 -5 0 -10 5 -10
10 0 6 5 10 10 10 6 0 10 -4 10 -10z"/>
<path d="M1763 6203 c-13 -2 -23 -8 -23 -13 0 -5 -9 -12 -20 -15 -11 -4 -18
-10 -15 -15 3 -4 -2 -13 -10 -20 -8 -7 -15 -20 -15 -30 0 -9 -3 -20 -7 -24 -4
-3 -9 -28 -11 -54 -2 -26 -2 -45 1 -42 3 3 25 35 50 72 24 37 48 64 52 60 4
-4 6 -2 4 3 -2 9 14 56 27 76 3 5 2 8 -3 8 -4 -1 -18 -4 -30 -6z"/>
<path d="M1665 5911 c-11 -5 -23 -7 -27 -4 -9 5 -10 -33 -2 -63 4 -16 11 -20
30 -16 15 3 24 0 24 -8 0 -10 3 -10 15 0 12 10 15 10 15 0 0 -28 14 2 15 32 1
22 -5 38 -19 50 -24 20 -24 20 -51 9z"/>
<path d="M1761 5761 c8 -11 20 -21 27 -21 9 0 12 -6 8 -16 -3 -8 -2 -12 4 -9
14 9 72 -55 99 -111 28 -56 44 -214 22 -214 -7 0 -10 -4 -7 -9 3 -5 -13 -30
-35 -55 -46 -51 -47 -73 -2 -32 15 14 33 26 39 26 7 0 15 6 18 13 3 6 15 26
26 42 41 64 46 82 46 145 -1 82 -6 95 -53 145 -7 7 -10 15 -7 17 2 3 -9 11
-26 18 -16 7 -30 16 -30 20 0 4 -24 16 -52 28 -29 11 -61 23 -71 27 -17 7 -18
6 -6 -14z"/>
<path d="M1647 5748 c-11 -9 -19 -33 -23 -73 -3 -33 -7 -71 -9 -83 -5 -32 12
-189 26 -232 20 -64 40 -98 60 -103 21 -6 22 -4 21 163 0 102 -5 152 -22 215
-6 22 -14 50 -17 63 -3 12 -10 22 -15 22 -6 0 -8 9 -5 20 6 24 6 24 -16 8z"/>
<path d="M1686 5745 c-2 -7 0 -15 5 -17 6 -2 11 -10 13 -18 2 -8 6 -22 9 -30
20 -46 32 -172 36 -372 1 -40 29 -36 80 12 23 22 39 40 36 40 -4 0 5 14 19 31
19 22 26 42 26 72 0 45 -20 111 -38 129 -7 7 -12 18 -12 25 0 7 -3 13 -7 13
-5 0 -31 22 -58 48 -70 66 -102 85 -109 67z"/>
<path d="M1605 5742 c-13 -9 -31 -38 -50 -82 -9 -19 -19 -37 -24 -40 -11 -7
-38 -109 -40 -150 -2 -48 48 -146 103 -200 26 -24 46 -40 46 -35 0 6 4 3 10
-5 5 -8 12 -11 16 -7 4 4 0 15 -8 24 -20 23 -45 104 -53 168 -12 96 -8 266 6
304 11 26 8 33 -6 23z"/>
<path d="M1530 5733 c-18 -7 -91 -83 -116 -121 -26 -37 -27 -183 -2 -227 10
-16 20 -38 24 -47 3 -10 13 -18 20 -18 8 0 14 -7 14 -15 0 -8 7 -15 16 -15 8
0 22 -7 31 -15 25 -25 29 -7 5 24 -41 56 -59 128 -50 211 4 41 12 76 17 78 6
2 7 10 4 18 -3 8 0 14 6 14 6 0 11 7 11 15 0 8 5 15 10 15 6 0 10 8 10 18 0
10 7 27 15 38 24 31 19 40 -15 27z"/>
<path d="M1815 5260 c3 -5 11 -10 16 -10 6 0 7 5 4 10 -3 6 -11 10 -16 10 -6
0 -7 -4 -4 -10z"/>
<path d="M5642 6026 c-5 -6 -19 -37 -32 -69 -15 -38 -27 -56 -38 -55 -8 2 -17
-2 -19 -8 -2 -7 6 -10 23 -6 22 4 26 2 21 -12 -8 -20 0 -21 19 -1 13 12 19 11
52 -11 20 -14 40 -31 44 -37 6 -9 8 -9 8 1 0 17 29 15 36 -3 4 -8 10 -12 15
-9 6 3 21 -2 35 -11 30 -19 39 -15 29 15 -5 16 -10 19 -20 10 -8 -7 -19 -9
-25 -5 -14 8 -13 48 2 63 18 18 23 102 6 102 -8 0 -24 9 -35 19 -23 22 -109
34 -121 17z"/>
<path d="M5486 5904 c-20 -19 -20 -25 -2 -18 8 3 17 12 20 20 7 18 1 18 -18
-2z"/>
<path d="M5501 5823 c-28 -14 -34 -14 -42 -2 -5 8 -9 9 -9 3 0 -6 -18 -10 -39
-10 -24 0 -48 -7 -59 -17 -10 -9 -22 -14 -25 -10 -4 3 -7 -1 -7 -10 0 -9 -6
-17 -14 -17 -8 0 -31 -22 -52 -50 -21 -27 -42 -50 -46 -50 -4 0 -8 -6 -8 -14
0 -8 -9 -30 -20 -49 -25 -41 -27 -159 -4 -178 8 -6 14 -18 14 -25 0 -7 11 -21
25 -30 14 -9 28 -27 31 -39 3 -13 13 -22 22 -21 10 0 16 -6 16 -16 -1 -9 4
-15 10 -12 15 5 88 -21 79 -29 -3 -4 9 -7 28 -7 19 0 40 -5 47 -12 9 -9 12 -9
12 0 0 7 7 12 15 12 8 0 15 -6 15 -14 0 -8 4 -17 9 -20 5 -4 7 4 4 16 -3 14
-1 18 4 12 4 -6 18 -14 30 -18 18 -6 22 -4 17 8 -4 12 2 14 30 11 23 -2 34 1
29 8 -4 6 -1 7 6 3 7 -5 21 0 31 9 19 17 48 17 94 -1 14 -5 17 -4 12 5 -5 8
-1 14 13 18 11 3 18 9 16 13 -3 5 12 28 33 51 48 51 74 121 69 180 -8 77 -19
129 -28 129 -5 0 -9 9 -9 21 0 11 -4 17 -10 14 -5 -3 -15 6 -22 20 -6 14 -18
24 -27 23 -15 -3 -68 41 -64 53 1 3 -9 4 -22 1 -14 -2 -36 3 -49 12 -14 8 -44
19 -68 22 -24 4 -45 11 -48 15 -3 4 -20 1 -39 -8z m-138 -146 c3 5 16 9 29 8
35 -3 31 -70 -5 -109 -15 -16 -27 -23 -27 -16 0 7 -8 10 -19 7 -12 -3 -22 1
-25 10 -12 30 -6 87 11 105 16 18 18 18 23 2 4 -10 9 -13 13 -7z m380 -9 c15
-22 16 -22 17 -3 0 17 2 17 10 5 13 -20 13 -67 0 -75 -5 -3 -10 -14 -10 -24 0
-10 -12 -23 -26 -29 -52 -24 -67 34 -31 121 14 33 20 34 40 5z m-157 -123 c-3
-8 2 -16 10 -19 12 -5 14 -17 10 -57 -7 -57 -17 -81 -37 -85 -8 -1 -36 -7 -64
-12 -27 -6 -54 -7 -60 -4 -15 10 -28 9 -47 0 -10 -5 -18 -5 -18 0 0 5 -11 7
-25 4 -18 -3 -25 0 -25 11 0 8 -5 17 -11 19 -32 11 49 83 83 75 7 -2 10 -2 6
0 -17 9 -7 25 12 20 10 -3 24 1 31 9 6 8 22 14 35 14 13 0 24 5 24 10 0 6 6
10 13 10 20 0 17 -33 -5 -52 -11 -9 -26 -14 -34 -11 -8 3 -14 1 -14 -5 0 -5
-16 -17 -35 -26 -19 -9 -35 -22 -35 -29 0 -9 3 -8 9 1 10 17 97 27 106 13 9
-15 65 29 65 51 0 10 -6 18 -14 18 -13 0 -20 45 -10 62 8 12 35 -4 30 -17z"/>
<path d="M5122 5358 c-23 -25 -30 -74 -11 -80 6 -2 12 -16 12 -31 2 -19 7 -27
20 -27 10 0 22 -10 27 -22 5 -13 9 -17 9 -9 1 11 4 11 16 1 8 -7 15 -9 16 -4
0 5 5 -2 10 -16 7 -16 13 -21 17 -13 8 13 52 6 52 -8 0 -5 10 -9 23 -9 13 0
32 -6 42 -14 13 -10 25 -11 37 -5 13 7 20 4 29 -13 11 -20 13 -20 24 -5 10 13
18 15 46 7 22 -7 35 -7 37 0 6 16 29 12 36 -6 3 -8 10 -12 16 -9 6 4 8 9 6 13
-6 9 106 9 120 0 7 -5 22 3 35 17 13 13 28 25 32 25 15 0 60 39 72 63 17 34
26 85 15 92 -6 3 -10 0 -10 -7 0 -15 -82 -108 -95 -108 -5 0 -17 -8 -28 -17
-15 -13 -21 -15 -24 -5 -6 16 -23 15 -23 -2 0 -9 -10 -13 -25 -12 -15 0 -25 7
-25 16 0 12 -2 12 -9 2 -5 -9 -17 -11 -34 -6 -16 3 -27 2 -27 -4 0 -11 -59
-10 -78 2 -6 4 -12 2 -12 -3 0 -6 -7 -11 -15 -11 -8 0 -15 3 -15 8 0 4 -14 8
-32 8 -18 1 -34 6 -36 13 -2 6 -14 11 -26 11 -47 0 -164 101 -189 162 l-12 30
-23 -24z"/>
<path d="M5886 5234 c-6 -15 -4 -15 11 -3 10 7 20 15 22 16 2 2 -3 3 -11 3 -9
0 -19 -7 -22 -16z"/>
<path d="M5058 5198 c-27 -28 -63 -87 -56 -93 2 -1 17 -10 35 -19 21 -11 30
-21 27 -31 -6 -13 6 -20 29 -16 9 1 10 -63 0 -72 -10 -10 -34 14 -26 27 4 6
-1 5 -10 -3 -14 -11 -18 -11 -23 3 -3 9 -15 16 -25 16 -11 0 -19 7 -20 18 0
10 -4 7 -9 -9 -14 -46 8 -136 47 -197 21 -32 36 -62 35 -68 -1 -7 7 -14 18
-17 11 -3 20 -12 20 -21 0 -9 5 -16 11 -16 5 0 7 -4 4 -10 -3 -5 5 -12 19 -16
14 -3 28 -14 31 -24 3 -11 12 -17 19 -14 7 3 20 -2 29 -10 9 -9 23 -16 31 -16
9 0 16 -4 16 -10 0 -5 14 -10 30 -10 17 0 30 -4 30 -10 0 -5 6 -7 14 -4 8 3
23 1 34 -5 11 -6 23 -6 28 -1 5 5 25 5 47 0 21 -4 50 -5 65 -1 15 4 42 4 61
-1 25 -7 36 -6 42 3 4 7 21 12 37 12 22 0 29 4 24 15 -4 12 2 14 27 10 22 -3
35 0 38 9 3 7 9 10 15 7 5 -3 18 2 28 11 10 9 36 23 57 31 21 7 30 13 20 14
-15 0 -12 6 15 34 50 50 58 63 58 90 0 14 4 27 9 30 12 8 22 76 15 104 -4 12
-12 22 -19 22 -7 0 -13 -10 -13 -22 -1 -79 -75 -208 -118 -208 -33 0 -47 33
-50 125 -5 114 -10 146 -25 180 -18 40 -17 39 -33 26 -8 -7 -19 -10 -25 -7 -5
3 -22 1 -37 -4 -15 -6 -35 -8 -43 -4 -14 6 -85 8 -108 3 -18 -4 -133 14 -133
21 0 4 -15 11 -32 15 -18 4 -35 8 -38 9 -3 1 -11 5 -17 9 -7 5 -13 6 -13 2 0
-3 -10 0 -22 7 -13 7 -27 11 -31 10 -4 -1 -10 5 -13 13 -4 8 -11 15 -18 15
-13 1 -59 40 -72 62 -8 12 -13 10 -36 -14z m347 -218 c-3 -6 5 -14 19 -20 19
-7 25 -16 25 -42 -1 -49 -18 -86 -44 -92 -34 -9 -52 2 -64 36 -15 43 -14 64 7
84 9 10 18 21 18 26 1 4 2 10 3 13 0 3 10 5 22 5 11 0 17 -5 14 -10z m22 -218
c16 -63 -43 -134 -94 -116 -24 8 -28 16 -30 49 -4 82 5 92 80 91 31 -1 39 -5
44 -24z"/>
<path d="M5910 5189 c0 -5 5 -7 10 -4 6 3 10 8 10 11 0 2 -4 4 -10 4 -5 0 -10
-5 -10 -11z"/>
<path d="M5870 5180 c0 -8 -16 -32 -34 -53 -25 -27 -39 -35 -53 -30 -10 3 -15
3 -11 -2 4 -4 0 -14 -10 -21 -14 -11 -15 -16 -4 -34 7 -12 15 -62 18 -113 5
-98 7 -112 18 -139 7 -15 9 -15 26 2 61 61 79 119 86 267 3 79 1 94 -16 115
-14 16 -19 19 -20 8z"/>
<path d="M5934 5080 c0 -77 1 -79 18 -60 10 10 18 24 18 30 0 12 -31 110 -34
110 -1 0 -2 -36 -2 -80z"/>
<path d="M5785 4750 c-3 -5 -1 -10 4 -10 6 0 11 5 11 10 0 6 -2 10 -4 10 -3 0
-8 -4 -11 -10z"/>
<path d="M306 5738 c-8 -18 -13 -35 -12 -38 20 -50 30 -59 63 -58 62 2 80 78
24 100 -14 6 -34 14 -44 19 -14 8 -20 4 -31 -23z m72 -39 c2 -18 -3 -29 -14
-33 -19 -7 -34 8 -34 35 0 39 43 37 48 -2z"/>
<path d="M417 5762 c-7 -12 13 -72 23 -72 5 0 16 13 25 29 14 29 14 29 -15 39
-16 6 -31 8 -33 4z"/>
<path d="M4103 5563 c-6 -2 -23 -26 -37 -53 -33 -63 -34 -118 -3 -150 12 -14
21 -27 20 -30 -4 -10 36 -19 42 -10 9 15 37 12 29 -2 -4 -8 0 -7 12 2 35 28
65 41 76 34 6 -4 8 -3 5 3 -4 6 -25 11 -47 11 -74 1 -100 16 -100 60 0 40 30
67 70 64 19 -2 39 -7 45 -12 6 -5 18 -3 27 4 16 12 13 16 -30 43 -48 31 -88
44 -109 36z"/>
<path d="M4523 5485 c-10 -7 -32 -15 -48 -17 -31 -3 -37 -23 -8 -23 10 0 24
-12 33 -27 14 -26 13 -29 -8 -50 -12 -13 -36 -24 -52 -24 -54 -3 -60 -4 -60
-14 0 -5 7 -10 15 -10 8 0 15 -4 15 -8 0 -12 56 -42 78 -42 30 0 82 30 93 54
6 11 18 37 29 56 10 19 16 39 13 43 -3 4 0 14 6 21 14 17 -1 30 -51 44 -27 7
-41 7 -55 -3z"/>
<path d="M4304 5477 c-3 -9 -12 -17 -19 -17 -7 0 -18 -13 -23 -29 -8 -22 -7
-32 5 -43 19 -20 61 -11 75 16 6 11 15 24 21 27 15 11 -2 49 -20 42 -8 -3 -19
0 -23 8 -7 11 -10 10 -16 -4z"/>
<path d="M4160 5451 c-27 -8 -35 -41 -11 -49 9 -3 11 0 7 7 -5 8 3 11 27 8 27
-3 36 0 40 14 4 14 0 16 -20 13 -15 -3 -22 -1 -18 6 3 5 5 10 3 9 -2 -1 -14
-4 -28 -8z"/>
<path d="M4398 5398 c5 -19 22 -25 22 -8 0 5 6 7 14 4 8 -3 17 -1 20 4 3 6 -9
12 -28 14 -28 3 -32 1 -28 -14z"/>
<path d="M4336 5311 c-3 -5 -15 -7 -26 -4 -25 7 -25 0 -1 -85 43 -147 48 -160
54 -132 3 14 5 36 4 49 -3 32 14 36 41 11 16 -15 22 -17 22 -6 0 7 -7 16 -15
20 -8 3 -15 12 -15 21 0 8 -4 15 -9 15 -7 0 -29 43 -35 70 -1 3 -5 11 -9 18
-5 6 -5 17 -2 22 3 6 4 10 1 10 -3 0 -7 -4 -10 -9z"/>
<path d="M4390 5085 c0 -9 9 -15 21 -15 18 0 19 2 9 15 -7 8 -16 15 -21 15 -5
0 -9 -7 -9 -15z"/>
<path d="M682 5126 c-8 -22 -22 -38 -35 -41 -18 -5 -22 -14 -23 -51 -1 -32 2
-44 13 -44 8 0 12 4 9 8 -2 4 3 13 12 19 19 12 62 0 62 -17 0 -6 5 -8 11 -4 6
3 8 17 5 29 -4 14 -1 25 7 29 9 3 7 9 -6 19 -9 8 -23 31 -30 51 l-13 37 -12
-35z"/>
<path d="M585 5070 c-3 -5 1 -10 9 -10 9 0 16 5 16 10 0 6 -4 10 -9 10 -6 0
-13 -4 -16 -10z"/>
<path d="M661 4932 c-18 -6 -46 -35 -54 -55 -3 -9 -11 -17 -17 -17 -6 0 -8 -4
-5 -10 3 -5 2 -10 -3 -10 -5 0 -14 -10 -20 -22 -7 -13 -23 -41 -37 -63 -14
-22 -30 -50 -35 -62 -5 -13 -18 -40 -28 -61 l-18 -38 35 -3 c19 -1 38 -7 42
-13 8 -13 -1 -49 -15 -64 -6 -6 -29 -36 -50 -67 -22 -32 -43 -57 -47 -57 -4 0
-10 -11 -13 -24 -3 -14 -14 -32 -23 -42 -25 -25 -27 -54 -4 -54 19 0 31 -18
31 -46 0 -12 -32 -66 -50 -84 -3 -3 -12 -18 -20 -35 -8 -16 -21 -38 -29 -47
-8 -10 -11 -18 -6 -18 4 0 2 -7 -5 -15 -10 -12 -10 -15 4 -15 9 0 16 -6 16
-14 0 -11 8 -12 33 -6 18 4 43 3 56 -2 13 -4 27 -5 33 -2 6 4 45 7 88 9 l77 2
12 -49 c6 -27 11 -71 11 -98 0 -107 19 -133 103 -139 l39 -3 -7 79 c-5 43 -12
91 -16 108 -5 16 -9 46 -9 67 0 29 5 38 22 44 12 4 24 2 25 -3 2 -6 22 -8 46
-5 23 3 52 6 65 6 12 1 22 5 22 9 0 5 4 5 10 2 5 -3 23 1 40 10 17 9 35 13 40
10 6 -3 10 -1 10 5 0 6 4 9 9 6 23 -15 -17 69 -51 107 -44 49 -45 56 -18 85
11 12 20 28 20 37 0 19 -90 197 -127 252 -35 52 -37 80 -7 100 l24 16 -23 31
c-13 17 -42 69 -64 117 -44 91 -89 149 -112 141z m119 -237 c0 -75 -34 -83
-67 -17 l-18 37 -3 -32 c-2 -18 -7 -33 -13 -33 -5 0 -9 -7 -9 -16 0 -9 -7 -14
-17 -12 -21 4 -45 79 -32 99 6 10 9 7 9 -11 1 -57 33 -64 43 -10 4 17 12 29
19 28 14 -3 42 -36 50 -58 4 -11 9 -7 17 13 7 18 7 35 1 53 -14 35 -12 41 5
18 8 -10 14 -37 15 -59z m-230 31 c-12 -34 -13 -66 -1 -66 5 0 16 18 25 40 18
46 29 52 23 13 -12 -71 -48 -114 -68 -82 -15 23 -10 84 8 106 22 27 26 23 13
-11z m301 -241 c8 -16 14 -37 13 -45 -1 -8 -2 -21 -3 -28 -1 -8 -8 -11 -20 -7
-15 4 -20 -1 -25 -29 -10 -50 -48 -56 -74 -11 -9 16 -11 17 -12 4 0 -42 -56
-23 -74 26 -7 17 -10 14 -21 -19 -25 -72 -57 -84 -70 -26 -8 36 -9 36 -37 10
-31 -29 -54 -25 -61 9 -9 44 19 121 44 121 13 0 11 -17 -5 -32 -20 -21 -31
-78 -15 -78 17 0 59 48 59 67 0 8 5 11 10 8 6 -4 9 -14 8 -23 -2 -11 3 -16 14
-14 9 1 19 -2 23 -8 11 -18 21 -10 21 17 -1 14 5 28 12 30 6 3 12 -1 12 -8 0
-17 51 -82 58 -74 4 3 7 20 8 38 3 61 5 62 22 13 17 -47 44 -77 57 -64 4 4 8
23 10 43 4 45 10 52 30 35 25 -20 19 10 -10 52 -14 20 -25 42 -25 48 0 17 36
-21 51 -55z m52 -234 c18 -31 21 -67 11 -120 -8 -41 -39 -41 -79 0 l-30 31 -3
-31 c-2 -17 -8 -31 -13 -31 -6 0 -7 -4 -4 -10 13 -22 -19 -8 -41 17 l-22 26
-7 -36 c-4 -19 -14 -38 -22 -42 -16 -6 -53 25 -53 45 0 5 -7 10 -15 10 -8 0
-15 -9 -15 -19 0 -41 -58 -23 -74 24 -6 17 -11 13 -37 -28 -40 -65 -89 -63
-97 4 -3 30 25 121 42 131 25 17 25 6 1 -42 -31 -61 -34 -107 -6 -105 23 1 40
19 68 70 27 50 43 56 43 17 0 -29 21 -62 40 -62 5 0 8 12 8 28 -1 48 2 62 12
62 6 0 10 -6 10 -12 0 -7 13 -32 28 -55 37 -56 54 -45 51 32 -2 42 1 60 10 63
8 3 11 0 8 -5 -8 -13 21 -73 34 -73 6 0 7 -4 4 -10 -3 -5 1 -10 9 -10 12 0 16
11 16 50 0 28 3 50 6 50 3 0 24 -20 47 -45 46 -50 63 -49 73 2 5 26 1 37 -25
63 -36 38 -37 40 -13 40 10 0 25 -13 35 -29z"/>
<path d="M590 4360 c0 -5 7 -7 15 -4 8 4 15 8 15 10 0 2 -7 4 -15 4 -8 0 -15
-4 -15 -10z"/>
<path d="M3962 4656 c-9 -24 -9 -41 -2 -60 5 -15 10 -41 10 -57 0 -17 5 -29
13 -29 9 0 13 11 11 33 -2 17 -1 24 2 15 3 -10 10 -18 15 -18 5 0 9 -7 9 -15
0 -24 15 -18 31 13 8 15 17 29 20 32 10 8 21 51 12 48 -12 -3 -54 21 -84 48
l-25 24 -12 -34z"/>
<path d="M1864 4667 c-6 -7 -9 -17 -7 -22 1 -6 -3 -37 -10 -71 -12 -60 -11
-164 1 -163 20 3 25 -3 12 -12 -11 -8 -6 -9 22 -4 30 4 37 2 41 -12 4 -17 5
-17 6 0 1 13 10 17 41 17 22 0 40 5 40 10 0 6 11 10 24 10 25 0 60 36 50 52
-3 5 -2 14 3 21 21 27 12 55 -21 71 -17 8 -63 38 -100 65 -72 54 -84 58 -102
38z"/>
<path d="M4073 4543 c-29 -58 -34 -103 -12 -103 5 0 9 -7 9 -15 0 -23 15 -18
30 10 7 14 17 25 22 25 4 0 8 7 8 15 0 8 5 15 10 15 17 0 11 -17 -19 -61 -28
-42 -28 -43 -13 -88 l15 -44 24 29 c13 16 28 35 34 42 6 7 13 11 16 8 3 -2 -9
-25 -26 -50 -36 -52 -37 -55 -13 -95 17 -30 32 -40 32 -22 0 6 18 21 40 34 29
17 37 26 29 34 -13 13 -16 86 -6 124 6 22 2 28 -28 42 -46 22 -87 87 -94 148
-1 4 -7 9 -13 11 -8 3 -26 -21 -45 -59z"/>
<path d="M2398 4574 c-8 -8 -67 -18 -102 -17 -22 0 -25 -2 -13 -9 9 -5 14 -15
11 -23 -4 -8 -1 -15 6 -15 8 0 10 -9 6 -27 -16 -72 -15 -80 15 -114 16 -18 29
-38 29 -45 0 -7 4 -16 10 -19 6 -4 7 1 3 12 -6 16 -5 16 10 4 21 -17 26 -12
33 24 6 33 28 77 48 98 13 12 13 20 -1 63 -9 27 -18 55 -19 62 -3 12 -26 17
-36 6z"/>
<path d="M2138 4535 c-10 -13 -18 -33 -18 -45 0 -33 29 -82 45 -76 8 3 15 0
17 -5 2 -7 14 -6 33 2 17 7 35 13 40 13 6 1 11 12 11 26 5 86 -85 145 -128 85z"/>
<path d="M3942 4448 c-10 -22 -21 -62 -22 -83 0 -5 5 -11 10 -11 6 -1 14 -2
19 -3 4 0 20 -19 35 -42 21 -32 30 -38 41 -29 10 8 14 8 18 -2 4 -9 6 -10 6
-1 1 7 8 10 16 7 20 -8 27 14 17 51 -7 24 -15 31 -45 36 -20 3 -41 1 -46 -4
-7 -7 -13 -5 -17 7 -10 25 0 31 63 35 9 1 9 9 2 31 -10 26 -16 30 -48 30 -29
0 -40 -5 -49 -22z"/>
<path d="M1735 4429 c-16 -10 -27 -19 -23 -19 14 0 -57 -70 -97 -96 -34 -21
-41 -30 -32 -39 7 -7 14 -9 15 -4 2 5 10 9 18 9 8 0 14 5 14 10 0 6 9 10 19
10 11 0 23 5 26 10 4 6 11 8 16 5 12 -8 -5 -40 -42 -79 -39 -42 -28 -45 20 -6
22 18 45 29 51 25 6 -4 22 0 35 9 13 9 31 16 40 16 8 0 15 5 15 11 0 6 7 8 15
5 9 -3 18 1 21 9 4 8 10 15 16 15 5 0 6 -6 2 -12 -4 -7 2 -4 14 6 12 11 22 21
22 24 0 3 -3 2 -6 -1 -4 -3 -16 -1 -28 5 -11 7 -24 11 -29 10 -8 -2 -23 29
-31 71 -7 32 -28 34 -71 6z"/>
<path d="M4813 4400 c-12 -11 -29 -20 -38 -20 -8 0 -15 -5 -15 -11 0 -5 -4 -8
-9 -4 -5 3 -12 1 -16 -5 -8 -13 -55 -13 -55 1 0 5 -5 7 -11 4 -5 -4 -19 1 -30
11 -16 15 -19 15 -19 2 0 -9 -17 -31 -38 -50 -21 -19 -37 -39 -34 -46 2 -6 -6
-16 -17 -22 -17 -9 -51 -58 -51 -73 0 -2 8 -4 18 -3 28 2 102 45 102 59 0 7
14 26 30 42 37 36 41 12 5 -28 -14 -15 -25 -27 -23 -28 18 -5 48 -4 48 2 0 4
11 10 24 13 14 3 27 15 31 25 11 35 95 108 95 83 0 -12 -50 -62 -61 -62 -4 0
-9 -6 -12 -13 -6 -15 20 -16 42 -3 7 5 17 4 23 -2 7 -7 1 -15 -18 -26 -16 -8
-23 -15 -17 -16 15 0 53 -31 53 -42 0 -13 -34 -4 -65 18 -26 18 -35 19 -72 10
-23 -6 -47 -16 -54 -23 -12 -12 -3 -37 11 -28 5 3 12 0 15 -5 4 -6 18 -16 33
-21 17 -7 22 -13 15 -20 -12 -12 -63 -1 -63 13 0 5 -4 7 -10 3 -5 -3 -16 5
-25 19 -14 21 -20 23 -51 16 -19 -4 -41 -13 -49 -20 -8 -6 -19 -9 -25 -5 -5 3
-10 1 -10 -4 0 -6 6 -11 14 -11 7 0 25 -9 40 -21 14 -11 26 -17 26 -13 0 4 8
0 18 -9 10 -10 22 -13 28 -8 14 13 64 23 64 12 0 -12 29 -8 38 5 9 13 43 28
60 25 6 -1 12 3 12 10 0 6 8 9 19 6 20 -5 27 5 55 80 8 23 29 56 46 73 31 32
39 53 17 44 -15 -5 -37 17 -59 59 l-14 27 -21 -20z"/>
<path d="M2063 4375 c-18 -8 -33 -11 -33 -7 -1 4 -13 -8 -29 -26 -15 -17 -55
-45 -89 -62 -34 -16 -62 -34 -62 -38 0 -5 -10 -20 -23 -34 -18 -20 -28 -23
-46 -16 -27 10 -101 7 -101 -4 0 -5 -5 -8 -10 -8 -6 0 -21 -9 -33 -20 -12 -11
-27 -18 -34 -15 -29 11 -54 -34 -58 -103 -4 -69 10 -158 27 -179 6 -7 8 -20 4
-28 -3 -9 0 -15 10 -15 10 0 14 -6 10 -15 -3 -9 1 -18 10 -22 8 -3 13 -12 10
-19 -3 -8 1 -14 9 -14 8 0 15 -9 15 -19 0 -10 7 -21 15 -25 8 -3 15 -13 15
-22 0 -10 5 -14 15 -10 8 3 15 0 15 -7 1 -20 105 -87 135 -87 18 0 20 -16 3
-24 -7 -3 -1 -4 13 -1 14 2 29 2 32 -2 4 -3 21 -8 39 -10 18 -2 34 -7 37 -11
8 -11 83 -32 93 -26 4 3 8 26 8 52 0 48 27 135 54 177 18 27 4 39 -26 23 -12
-6 -18 -5 -18 2 0 6 -8 9 -17 6 -36 -11 -135 36 -127 59 4 10 2 13 -8 10 -18
-7 -37 21 -62 93 -22 62 -18 140 10 193 28 54 77 110 91 105 8 -3 18 5 25 19
12 27 36 32 57 13 11 -11 13 -10 8 5 -4 9 -2 17 3 17 6 0 10 -6 10 -12 0 -9 4
-8 10 2 9 13 11 13 20 0 9 -13 11 -13 20 0 7 10 12 12 18 4 11 -16 76 -24 148
-17 l64 6 -51 48 c-47 44 -55 48 -88 43 -38 -6 -105 19 -79 29 7 3 5 6 -7 6
-11 0 -35 -6 -52 -14z m-25 -63 c2 -7 -6 -12 -17 -12 -21 0 -27 11 -14 24 9 9
26 2 31 -12z m-280 -302 c5 -31 -7 -72 -18 -65 -6 3 -10 -1 -10 -9 0 -23 -18
-29 -50 -14 -26 11 -30 18 -30 51 0 31 5 40 31 56 38 23 72 15 77 -19z m115
-254 c32 -24 13 -106 -24 -106 -8 0 -23 9 -33 21 -19 22 -16 59 7 84 15 18 27
18 50 1z"/>
<path d="M4425 4257 c-13 -28 -27 -43 -42 -45 -17 -3 -23 -10 -23 -28 0 -14
-5 -34 -10 -45 -9 -16 -7 -19 12 -16 13 1 31 10 42 19 10 9 23 15 30 12 6 -2
22 21 35 51 14 30 28 55 33 55 4 0 8 7 8 15 0 8 -9 15 -19 15 -11 0 -25 2 -33
5 -8 3 -21 -12 -33 -38z"/>
<path d="M4077 4254 c-1 -2 -15 -5 -31 -8 -31 -6 -42 -13 -34 -22 4 -3 15 -1
26 5 12 6 32 11 46 11 14 0 26 4 26 8 0 8 -26 12 -33 6z"/>
<path d="M1578 4233 c7 -3 16 -2 19 1 4 3 -2 6 -13 5 -11 0 -14 -3 -6 -6z"/>
<path d="M3313 4218 c-29 -14 -30 -56 -3 -86 39 -41 93 -21 93 34 0 45 -48 72
-90 52z"/>
<path d="M2043 4206 c-10 -6 -32 -11 -49 -13 -32 -2 -75 -36 -87 -67 -4 -9
-11 -16 -16 -16 -5 0 -9 -8 -9 -17 0 -10 -2 -32 -6 -49 -4 -22 -2 -33 7 -37 9
-3 14 -23 15 -53 0 -28 5 -50 12 -52 7 -3 24 -17 39 -32 14 -15 37 -30 51 -31
14 -2 25 -9 25 -16 0 -6 4 -15 9 -20 5 -5 6 -3 2 5 -5 9 4 12 36 13 24 1 46 1
51 0 15 -2 6 39 -19 88 -23 43 -27 64 -28 144 -1 86 1 96 25 128 l26 34 -33 1
c-18 0 -41 -4 -51 -10z"/>
<path d="M4221 4201 c-22 -17 -23 -21 -12 -53 7 -22 21 -39 34 -43 38 -13 52
-10 49 8 -2 9 2 17 8 17 5 0 19 9 30 20 16 16 18 24 10 41 -6 11 -15 17 -20
14 -5 -3 -11 -1 -15 5 -10 16 -58 11 -84 -9z"/>
<path d="M2853 4190 c-12 -5 -25 -21 -29 -36 -6 -21 -2 -31 16 -46 51 -42 121
30 74 76 -17 18 -29 19 -61 6z"/>
<path d="M4418 4118 c-27 -9 -39 -28 -18 -28 6 0 10 -7 10 -15 0 -8 5 -15 10
-15 6 0 10 -8 10 -18 0 -12 8 -18 28 -19 15 -1 39 -5 55 -8 19 -5 27 -4 27 6
0 7 8 21 18 32 9 11 11 17 5 13 -14 -8 -73 23 -73 38 0 5 -3 6 -7 3 -3 -4 -13
-1 -22 7 -12 10 -23 11 -43 4z"/>
<path d="M4221 4044 c1 -41 2 -45 9 -22 4 14 11 31 14 36 3 5 -1 15 -9 22 -13
11 -15 6 -14 -36z"/>
<path d="M4285 4069 c3 -4 0 -9 -6 -11 -6 -2 -12 -21 -13 -43 -1 -35 3 -41 39
-61 33 -19 42 -21 55 -10 8 7 22 16 30 19 9 3 10 6 3 6 -19 1 -16 39 5 50 16
9 16 11 -3 30 -19 18 -120 37 -110 20z"/>
<path d="M2573 3963 c9 -2 23 -2 30 0 6 3 -1 5 -18 5 -16 0 -22 -2 -12 -5z"/>
<path d="M2416 3904 c-11 -7 -16 -17 -13 -21 4 -4 15 1 24 10 22 21 14 30 -11
11z"/>
<path d="M3533 3793 c9 -2 23 -2 30 0 6 3 -1 5 -18 5 -16 0 -22 -2 -12 -5z"/>
<path d="M6029 4135 c-41 -27 -99 -82 -99 -95 0 -5 -3 -10 -7 -12 -31 -13 -98
-143 -108 -208 l-7 -45 51 54 c28 30 51 51 51 47 0 -4 20 14 45 40 25 25 45
48 45 50 0 3 13 19 28 35 16 17 42 55 58 85 25 47 27 56 14 64 -21 14 -30 12
-71 -15z"/>
<path d="M5765 3740 c-4 -6 -10 -8 -14 -5 -13 7 -32 -45 -25 -67 4 -13 12 -18
25 -15 11 3 23 -2 29 -11 9 -15 13 -14 34 12 26 32 24 51 -9 78 -23 20 -32 22
-40 8z"/>
<path d="M5520 3649 c0 -6 -4 -8 -9 -4 -5 3 -12 1 -16 -5 -3 -6 1 -13 9 -16 9
-3 16 -15 16 -25 0 -10 6 -19 14 -19 8 0 16 -7 20 -15 3 -8 12 -15 20 -15 9 0
20 -9 26 -20 6 -11 15 -18 21 -15 5 4 9 2 9 -3 0 -4 16 -14 35 -22 19 -8 35
-17 35 -22 0 -4 7 -5 15 -2 19 8 47 -14 38 -29 -4 -6 2 -8 15 -5 12 4 25 2 28
-4 3 -5 12 -7 20 -4 7 3 18 -2 22 -11 6 -10 16 -14 26 -10 9 4 16 3 16 -1 0
-4 18 -8 40 -9 28 -2 40 1 40 11 0 9 -17 15 -52 18 -29 3 -54 11 -56 17 -2 6
-12 11 -22 11 -10 0 -21 9 -25 19 -3 12 -12 18 -20 15 -8 -3 -25 5 -39 19 -14
14 -27 23 -30 20 -6 -7 -154 105 -159 120 -4 13 -37 18 -37 6z"/>
<path d="M5580 3650 c0 -5 5 -11 10 -11 6 -1 15 -2 20 -3 6 0 10 -5 9 -10 0
-4 14 -17 33 -28 18 -11 38 -27 44 -36 6 -8 16 -12 22 -8 6 3 22 -5 36 -19 14
-14 32 -25 41 -25 13 0 73 -38 95 -60 3 -3 18 -5 33 -5 24 -1 27 2 23 20 -3
11 -6 23 -6 28 0 4 -6 7 -13 7 -7 0 -28 13 -47 30 -19 16 -41 29 -47 30 -7 0
-13 5 -13 10 0 6 -6 10 -14 10 -7 0 -19 6 -25 14 -6 7 -26 17 -44 21 -17 4
-34 8 -37 9 -3 1 -11 5 -17 9 -7 5 -13 6 -13 2 0 -3 -8 -2 -17 3 -31 16 -73
23 -73 12z"/>
<path d="M5419 3605 c-50 -33 -70 -66 -54 -88 7 -9 17 -17 23 -17 6 0 16 -9
22 -20 6 -11 18 -20 28 -21 11 0 13 -2 4 -6 -10 -4 -7 -10 10 -21 13 -9 28
-17 33 -17 6 0 9 -8 7 -18 -2 -12 4 -17 23 -17 14 0 25 -4 25 -8 0 -5 16 -16
35 -25 19 -9 35 -21 35 -27 0 -5 8 -10 18 -10 11 0 27 -9 36 -19 10 -11 24
-17 31 -14 8 2 20 1 27 -3 13 -9 17 -9 132 -17 78 -6 99 5 110 59 7 30 5 32
-26 38 -95 17 -96 17 -91 -3 5 -20 -25 -81 -39 -81 -4 0 -9 8 -10 18 -3 40 4
66 25 84 12 11 16 17 10 13 -11 -5 -54 6 -114 30 -13 5 -20 -3 -29 -32 -23
-71 -50 -80 -50 -18 0 33 20 64 43 66 7 0 2 4 -11 10 -13 5 -21 13 -18 18 3 5
-3 7 -13 4 -15 -4 -37 12 -85 60 -35 36 -67 75 -71 86 -8 26 -21 26 -66 -4z
m76 -54 c8 -27 -10 -67 -34 -74 -12 -3 -19 -1 -15 4 3 5 -2 9 -11 9 -12 0 -15
6 -9 23 15 50 57 74 69 38z m75 -108 c-7 -21 -18 -41 -23 -45 -33 -21 -37 45
-5 79 30 32 44 15 28 -34z"/>
<path d="M5466 3525 c-3 -8 -1 -15 4 -15 6 0 10 7 10 15 0 8 -2 15 -4 15 -2 0
-6 -7 -10 -15z"/>
<path d="M5337 3493 c-2 -5 -2 -14 -1 -20 1 -7 2 -19 3 -26 0 -8 19 -33 41
-56 45 -48 43 -42 30 -75 -8 -21 -6 -26 10 -31 11 -4 20 -14 20 -24 0 -10 6
-24 14 -30 8 -7 15 -20 15 -29 0 -9 3 -46 5 -82 2 -36 1 -84 -4 -107 -5 -32
-4 -47 7 -60 14 -17 14 -17 9 1 -5 15 -2 17 14 13 11 -3 20 -1 20 4 0 17 82
119 91 113 5 -3 9 -1 9 5 0 11 84 52 112 56 24 2 36 15 15 15 -9 0 -17 8 -17
18 0 14 -2 15 -10 2 -6 -9 -13 -11 -17 -5 -5 6 -21 12 -38 13 -16 2 -34 8 -39
13 -6 5 -20 9 -33 9 -13 0 -23 5 -23 10 0 6 -8 10 -17 10 -9 0 -24 7 -34 16
-9 8 -26 17 -36 18 -10 2 -18 9 -18 16 0 7 -8 14 -18 16 -25 3 -31 10 -24 28
5 12 10 13 31 3 14 -7 26 -18 26 -24 0 -7 8 -13 18 -13 10 0 41 -11 69 -25 28
-13 63 -27 77 -31 14 -3 26 -11 26 -18 0 -7 4 -6 9 2 7 11 13 12 32 1 13 -7
32 -16 42 -21 22 -11 133 -20 123 -11 -3 3 1 11 10 18 13 9 8 11 -28 12 -50 1
-107 8 -128 16 -8 3 -32 8 -52 12 -21 3 -42 13 -47 23 -8 12 -10 13 -11 3 0
-11 -4 -11 -18 2 -10 10 -24 17 -30 17 -7 0 -12 4 -12 9 0 5 -9 13 -21 16 -13
4 -18 12 -15 22 4 10 2 13 -8 10 -9 -3 -44 25 -91 74 -81 83 -82 83 -88 72z"/>
<path d="M5340 3389 c0 -5 5 -7 10 -4 6 3 10 8 10 11 0 2 -4 4 -10 4 -5 0 -10
-5 -10 -11z"/>
<path d="M5350 3366 c0 -2 7 -7 16 -10 8 -3 12 -2 9 4 -6 10 -25 14 -25 6z"/>
<path d="M5383 3325 c0 -8 4 -12 9 -9 5 3 6 10 3 15 -9 13 -12 11 -12 -6z"/>
<path d="M4602 3528 c-6 -6 -12 -9 -12 -5 0 4 -9 3 -19 -3 -14 -7 -21 -6 -24
3 -3 7 -6 4 -6 -6 -1 -14 -6 -17 -21 -12 -11 4 -20 2 -20 -4 0 -6 -9 -11 -21
-11 -11 0 -18 -4 -15 -8 2 -4 -9 -17 -25 -27 -16 -11 -29 -23 -29 -27 0 -5 -6
-8 -13 -8 -13 0 -26 -26 -59 -117 -22 -62 -28 -180 -16 -298 6 -55 12 -84 40
-200 15 -64 50 -125 73 -126 11 -1 38 -3 60 -4 22 -1 50 -5 63 -9 14 -5 22 -3
22 4 0 7 8 9 19 5 11 -3 22 -2 25 3 2 4 24 7 48 6 41 -2 88 7 133 28 11 5 34
10 52 11 17 1 29 6 26 11 -3 4 4 5 16 1 12 -4 21 -2 21 4 0 6 10 10 23 8 21
-2 22 0 19 71 -3 50 0 72 8 72 6 0 9 4 6 8 -3 5 10 26 29 48 19 21 35 42 35
47 0 4 6 7 13 7 8 0 22 18 32 40 10 22 21 40 25 40 12 0 19 54 9 66 -5 6 -6
13 -4 16 3 3 -13 4 -37 2 -23 -2 -46 -8 -52 -14 -5 -5 -18 -10 -28 -10 -10 0
-17 -3 -16 -7 4 -13 -45 -73 -58 -73 -14 0 -30 38 -20 47 3 4 2 11 -3 17 -5 6
-19 47 -32 91 -12 44 -25 82 -28 85 -11 9 -65 125 -63 133 2 5 -2 6 -7 3 -5
-3 -14 1 -21 9 -7 8 -9 15 -4 15 4 0 -1 6 -11 14 -11 8 -23 12 -27 10 -5 -3
-8 -1 -8 5 0 10 -39 27 -54 23 -4 -2 -13 4 -20 13 -9 12 -14 13 -24 3z m2
-280 c6 -7 20 -24 29 -38 13 -19 17 -21 17 -7 0 9 4 17 9 17 5 0 12 10 14 23
l4 22 8 -22 c4 -13 11 -20 16 -17 5 3 9 -4 9 -15 0 -11 -9 -25 -21 -31 -11 -7
-18 -14 -15 -17 3 -3 -3 -18 -14 -33 -27 -38 -25 -44 5 -15 13 14 29 25 35 25
5 0 10 5 10 11 0 5 -5 7 -12 3 -6 -4 1 9 17 29 38 46 49 38 25 -18 -19 -44
-19 -45 1 -32 29 18 39 -5 24 -51 -12 -34 -45 -58 -45 -33 0 14 -47 14 -56 0
-4 -8 0 -9 15 -4 15 4 21 2 21 -8 0 -10 7 -13 20 -10 15 4 20 0 21 -13 0 -11
3 -14 6 -6 7 17 16 15 41 -8 27 -25 28 -38 5 -47 -10 -4 -23 -13 -28 -21 -9
-11 -16 -9 -38 12 l-28 26 -6 -30 c-8 -44 -22 -36 -18 11 3 28 0 42 -11 46 -8
3 -14 11 -14 19 0 8 -6 14 -14 14 -8 0 -16 6 -19 13 -3 6 -4 -19 -3 -58 1 -79
-16 -104 -25 -35 l-5 45 -20 -42 c-10 -24 -23 -41 -29 -40 -18 6 -18 40 1 54
10 7 13 13 7 13 -7 0 -15 -4 -18 -10 -12 -19 -38 -11 -32 10 3 12 -2 27 -11
37 -10 9 -17 26 -17 37 -1 12 -4 27 -9 34 -5 8 -2 20 8 30 9 11 13 27 9 41 -4
17 -3 22 5 17 7 -4 12 -2 12 4 0 12 40 -6 52 -23 4 -6 10 1 13 16 9 36 25 24
25 -19 0 -21 4 -33 10 -29 6 3 10 1 10 -5 0 -6 5 -8 10 -5 15 10 12 37 -10 78
-28 53 -26 85 4 55z"/>
<path d="M4508 3088 c6 -6 18 -8 28 -6 14 3 12 5 -9 10 -19 3 -25 2 -19 -4z"/>
<path d="M4545 3030 c3 -5 8 -10 11 -10 2 0 4 5 4 10 0 6 -5 10 -11 10 -5 0
-7 -4 -4 -10z"/>
<path d="M4133 2764 c-15 -16 -16 -24 -4 -24 8 0 24 30 19 35 -2 2 -9 -3 -15
-11z"/>
<path d="M4936 2695 c-16 -7 -24 -15 -18 -19 5 -3 13 -28 17 -54 5 -36 10 -48
24 -48 18 0 22 14 24 79 1 48 -10 58 -47 42z"/>
<path d="M4855 2679 c3 -4 -1 -9 -8 -11 -11 -2 -10 -15 5 -66 17 -57 21 -62
41 -56 12 3 23 7 23 8 1 0 -3 29 -9 63 -9 52 -14 62 -33 66 -13 2 -21 1 -19
-4z"/>
<path d="M4764 2640 c-9 -19 -5 -63 6 -70 4 -3 9 -14 11 -25 3 -14 13 -20 32
-21 26 -1 28 1 22 25 -4 14 -9 37 -11 51 -9 47 -14 56 -34 56 -11 0 -23 -7
-26 -16z"/>
<path d="M4678 2631 c-30 -5 -36 -9 -28 -21 5 -8 10 -28 10 -43 0 -38 41 -76
75 -69 26 5 26 5 8 65 -7 24 -9 33 -11 60 -1 9 -5 16 -9 16 -5 -1 -25 -5 -45
-8z"/>
<path d="M4571 2623 c-19 -4 -22 -9 -16 -31 4 -15 7 -37 8 -49 1 -13 7 -23 14
-23 7 0 16 -6 20 -13 19 -33 52 -26 43 8 -2 6 -8 32 -15 59 -12 52 -16 56 -54
49z"/>
<path d="M4467 2604 c-3 -4 -2 -15 4 -26 5 -10 8 -22 6 -26 -3 -4 1 -13 8 -19
20 -18 24 15 7 50 -15 29 -16 30 -25 21z"/>
<path d="M4540 2501 c0 -6 4 -13 10 -16 6 -3 7 1 4 9 -7 18 -14 21 -14 7z"/>
<path d="M4780 2462 c0 -7 -8 -12 -17 -11 -10 1 -20 0 -23 -1 -3 -1 -18 -3
-35 -5 -16 -2 -41 -7 -55 -10 -19 -4 -21 -3 -10 5 13 8 13 10 -2 10 -9 0 -19
-4 -22 -9 -3 -5 -15 -7 -26 -4 -16 4 -19 2 -14 -13 4 -11 10 -23 14 -29 14
-20 19 -57 10 -80 -11 -30 -59 -80 -76 -80 -8 0 -14 -5 -15 -10 -1 -6 -16 -24
-35 -41 -24 -20 -33 -36 -29 -47 7 -17 54 -36 108 -43 29 -3 36 0 45 21 7 14
19 28 27 31 8 4 15 12 15 20 0 8 5 14 10 14 6 0 10 6 9 13 -1 6 1 20 4 30 4 9
9 24 12 33 3 9 11 14 20 10 9 -3 15 0 15 9 0 18 16 20 23 3 4 -10 6 -10 6 0 1
7 6 10 11 7 6 -3 10 -1 10 5 0 7 8 9 19 5 22 -7 32 18 35 89 2 34 -3 54 -15
70 -11 12 -18 16 -19 8z"/>
<path d="M4488 2433 c-16 -4 -16 -8 6 -36 14 -18 30 -46 37 -62 9 -23 13 -26
16 -12 3 9 8 17 12 17 4 0 7 9 8 20 1 11 -3 20 -9 20 -5 0 -8 7 -4 15 3 8 1
15 -4 15 -6 0 -10 7 -10 15 0 15 -17 17 -52 8z"/>
<path d="M4416 2385 c-17 -13 -16 -16 19 -74 21 -34 41 -61 46 -61 10 0 23 40
15 47 -3 4 -1 12 4 18 8 9 6 14 -5 19 -9 3 -14 10 -10 16 8 13 -17 50 -35 50
-8 0 -23 -7 -34 -15z"/>
<path d="M4380 2322 c0 -13 -7 -36 -15 -52 -14 -27 -14 -33 0 -61 14 -27 18
-29 33 -17 40 31 41 57 7 113 -21 34 -25 36 -25 17z"/>
<path d="M4826 2241 c-18 -28 -33 -100 -24 -115 14 -24 51 -19 72 11 18 24 18
30 5 67 -14 39 -40 58 -53 37z"/>
<path d="M4322 2188 c-14 -14 -16 -38 -2 -38 13 0 32 38 22 44 -5 3 -14 0 -20
-6z"/>
<path d="M1481 3218 c-18 -41 -31 -96 -39 -174 -7 -60 -6 -62 15 -60 19 1 23
7 24 34 2 40 3 44 11 58 4 5 9 28 12 50 2 21 7 50 11 64 3 14 0 32 -7 43 -12
16 -14 15 -27 -15z"/>
<path d="M1750 3242 c0 -5 -11 -15 -24 -22 -25 -13 -31 -23 -46 -73 -11 -35
19 -56 44 -31 9 8 20 12 26 9 5 -3 10 0 10 8 0 7 8 22 18 33 10 11 21 29 24
42 5 17 2 22 -13 22 -10 0 -19 5 -19 10 0 6 -4 10 -10 10 -5 0 -10 -4 -10 -8z"/>
<path d="M990 3122 c-54 -36 -76 -79 -79 -157 -2 -51 1 -64 18 -79 20 -18 21
-18 21 -2 0 10 8 20 18 23 20 5 71 109 77 159 3 21 -1 39 -13 52 -16 20 -18
20 -42 4z"/>
<path d="M1250 3128 c0 -4 -8 -8 -18 -8 -29 0 -64 -73 -67 -139 -3 -63 8 -88
31 -68 7 7 19 17 26 23 51 45 95 148 80 184 -7 16 -52 23 -52 8z"/>
<path d="M770 3097 c0 -6 -3 -8 -6 -4 -9 9 -82 -71 -104 -113 -22 -44 -12 -81
22 -79 l23 2 -23 4 c-16 3 -22 9 -18 20 3 8 6 19 6 25 0 5 6 8 13 5 13 -5 55
15 96 46 25 18 44 47 53 84 5 20 2 22 -28 21 -19 -1 -34 -6 -34 -11z"/>
<path d="M1510 2951 c0 -11 6 -21 13 -21 6 0 26 -7 42 -16 17 -9 53 -17 80
-18 28 0 55 -5 62 -9 17 -11 63 21 56 39 -3 8 -9 11 -14 8 -5 -3 -14 -2 -20 1
-6 4 -31 9 -57 11 -26 2 -58 6 -72 9 -94 18 -90 18 -90 -4z"/>
<path d="M1345 2900 c3 -5 8 -10 11 -10 2 0 4 5 4 10 0 6 -5 10 -11 10 -5 0
-7 -4 -4 -10z"/>
<path d="M1545 2900 c-3 -5 -1 -10 4 -10 6 0 11 5 11 10 0 6 -2 10 -4 10 -3 0
-8 -4 -11 -10z"/>
<path d="M1226 2873 c-12 -12 -5 -22 11 -16 13 5 15 2 10 -16 -4 -16 -1 -21
11 -19 11 2 18 -5 20 -21 3 -19 6 -21 13 -10 7 11 10 9 15 -8 4 -13 11 -20 16
-17 5 3 17 -1 26 -9 23 -20 90 -27 96 -10 7 17 -3 44 -23 64 -24 23 -72 53
-90 56 -45 8 -100 11 -105 6z"/>
<path d="M657 2841 c-2 -11 6 -37 18 -58 13 -20 21 -41 19 -45 -3 -5 1 -8 9
-8 8 0 17 -8 19 -18 4 -12 21 -23 47 -29 l41 -11 0 34 c0 50 -59 134 -95 134
-8 0 -15 5 -15 10 0 18 -38 10 -43 -9z"/>
<path d="M966 2825 c4 -16 11 -38 16 -47 5 -10 6 -18 3 -18 -3 0 8 -13 25 -30
16 -16 30 -33 30 -38 0 -11 96 -10 106 1 4 4 -2 17 -14 30 -12 13 -22 29 -22
35 0 7 -7 12 -15 12 -8 0 -15 5 -15 10 0 6 -3 9 -7 8 -5 -1 -23 6 -40 15 -18
10 -33 15 -33 11 0 -3 -9 4 -20 17 l-20 24 6 -30z"/>
<path d="M2270 2833 c-1 -5 -3 -35 -6 -68 -4 -33 -3 -57 0 -54 10 9 23 129 14
129 -4 0 -8 -3 -8 -7z"/>
<path d="M2251 2654 c0 -11 3 -14 6 -6 3 7 2 16 -1 19 -3 4 -6 -2 -5 -13z"/>
<path d="M1885 2626 c-16 -17 -21 -37 -23 -96 -3 -73 -3 -75 25 -90 18 -10 39
-13 58 -9 17 4 24 7 18 8 -7 0 -14 0 -16 -1 -1 -2 -13 7 -26 19 -21 19 -23 27
-16 68 4 33 10 45 20 41 7 -2 16 2 19 10 3 9 10 13 15 10 5 -4 20 -2 34 3 18
7 28 5 41 -7 10 -10 16 -12 16 -4 0 7 5 12 11 12 6 0 9 -7 5 -15 -3 -8 -1 -15
4 -15 6 0 10 5 10 10 0 17 18 11 23 -7 4 -17 5 -17 6 -1 0 10 -9 23 -21 29
-13 7 -25 16 -29 20 -6 10 -81 25 -119 24 -14 0 -27 2 -30 6 -3 3 -14 -4 -25
-15z"/>
<path d="M1973 2544 c8 -13 -19 -27 -34 -18 -5 3 -9 -2 -9 -12 0 -14 8 -16 58
-10 31 4 70 8 85 8 18 1 25 4 18 11 -5 5 -29 9 -52 9 -24 -1 -50 5 -58 11 -10
8 -13 9 -8 1z"/>
<path d="M2085 2470 c3 -5 8 -10 11 -10 2 0 4 5 4 10 0 6 -5 10 -11 10 -5 0
-7 -4 -4 -10z"/>
<path d="M2435 2080 c-4 -6 -11 -7 -17 -4 -8 5 -9 1 -5 -10 4 -10 7 -22 7 -27
0 -5 5 -9 11 -9 5 0 7 4 4 10 -3 5 -1 19 5 30 11 20 7 29 -5 10z"/>
<path d="M2450 2050 c0 -5 4 -10 9 -10 6 0 13 5 16 10 3 6 -1 10 -9 10 -9 0
-16 -4 -16 -10z"/>
<path d="M2581 1921 c-1 -7 -7 -11 -16 -7 -17 6 -21 -19 -4 -30 15 -9 32 11
26 32 -3 11 -5 13 -6 5z"/>
<path d="M2067 1846 c-8 -20 16 -39 30 -25 14 14 36 2 27 -13 -5 -7 -2 -8 7
-2 8 5 32 9 53 9 25 0 41 5 44 14 3 10 -2 12 -20 8 -14 -4 -28 -3 -32 1 -4 3
-20 7 -35 8 -15 1 -37 4 -48 8 -14 4 -23 2 -26 -8z"/>
<path d="M2240 1830 c0 -5 6 -13 14 -17 8 -4 24 -27 36 -50 22 -44 35 -57 23
-25 -24 63 -73 125 -73 92z"/>
<path d="M2292 1690 c0 -14 2 -19 5 -12 2 6 2 18 0 25 -3 6 -5 1 -5 -13z"/>
<path d="M5755 2762 c-22 -18 -20 -22 27 -60 15 -12 15 -9 6 30 -5 23 -10 43
-11 44 -1 1 -11 -5 -22 -14z"/>
<path d="M5840 2756 c0 -2 7 -17 15 -32 8 -16 15 -43 15 -60 0 -29 36 -74 60
-74 13 0 13 0 -6 68 -13 46 -23 62 -50 80 -19 12 -34 20 -34 18z"/>
<path d="M5997 2585 c4 -35 14 -54 39 -79 19 -19 34 -32 34 -30 0 37 -27 107
-49 128 l-29 28 5 -47z"/>
<path d="M6135 2449 c3 -42 1 -50 -11 -45 -12 5 -12 2 -3 -16 7 -13 9 -38 4
-67 -3 -25 -6 -57 -5 -71 1 -14 3 -42 4 -62 1 -28 5 -36 18 -35 10 1 20 7 22
14 3 7 12 13 21 13 14 0 14 3 2 23 -11 16 -14 53 -12 137 2 118 -3 143 -29
153 -13 5 -15 -2 -11 -44z"/>
<path d="M6230 2340 c-1 -19 -3 -47 -5 -62 -2 -15 0 -30 5 -33 13 -8 23 91 11
112 -9 15 -11 13 -11 -17z"/>
<path d="M5875 2240 c-10 -16 20 -57 55 -75 35 -18 44 -8 38 41 -2 21 -9 28
-28 29 -14 1 -32 5 -41 9 -10 4 -20 2 -24 -4z"/>
<path d="M6004 2182 c3 -45 5 -47 36 -47 37 0 50 17 43 60 -4 28 -8 31 -44 32
l-39 2 4 -47z"/>
<path d="M3103 2652 c-22 -3 -40 -38 -45 -87 -3 -29 -5 -30 -63 -35 l-60 -5
-3 -47 c-3 -39 0 -49 17 -58 21 -11 31 3 11 15 -16 10 -12 65 6 72 9 3 19 1
23 -4 3 -6 16 -13 29 -17 12 -4 19 -12 16 -18 -4 -6 2 -5 15 1 17 9 21 9 19
-1 -2 -7 5 -12 15 -12 13 2 16 -3 11 -19 -5 -16 -3 -19 11 -13 14 5 17 2 13
-17 -3 -13 2 -29 11 -38 14 -13 13 -14 -6 -17 -12 -2 -25 -13 -29 -25 -20 -66
-137 -153 -169 -127 -12 10 -15 9 -15 -4 0 -23 45 -20 89 6 40 24 111 94 111
110 0 6 17 -7 38 -30 44 -47 76 -68 117 -75 40 -7 55 3 71 49 19 56 18 62 -18
69 -35 8 -116 67 -125 92 -8 21 15 33 67 33 58 0 69 8 71 51 4 54 -4 60 -77
53 -56 -5 -65 -3 -70 13 -25 77 -39 92 -81 85z"/>
<path d="M2990 2431 c0 -5 9 -7 20 -4 42 11 35 -46 -12 -96 -10 -11 -18 -24
-18 -28 0 -14 62 61 72 86 5 14 7 30 4 38 -6 14 -66 18 -66 4z"/>
<path d="M2900 2260 c0 -5 7 -7 15 -4 8 4 15 8 15 10 0 2 -7 4 -15 4 -8 0 -15
-4 -15 -10z"/>
<path d="M3072 2149 c-20 -8 -23 -14 -17 -40 l7 -31 -56 4 -56 3 0 -35 c0 -46
15 -60 62 -60 27 0 40 -5 48 -20 16 -30 4 -40 -51 -40 l-49 0 0 -44 c0 -37 4
-46 22 -52 36 -11 188 -6 262 8 l69 14 1 44 0 45 -57 -3 c-40 -1 -57 1 -57 10
0 9 -3 8 -10 -2 -9 -14 -10 -13 -10 18 0 4 3 7 8 7 4 0 29 7 55 15 69 21 92
51 88 113 -1 22 -43 23 -106 2 -55 -19 -63 -15 -57 25 4 29 3 30 -34 29 -22 0
-49 -4 -62 -10z m18 -29 c0 -5 -4 -10 -10 -10 -5 0 -10 5 -10 10 0 6 5 10 10
10 6 0 10 -4 10 -10z m-95 -61 c4 -6 5 -12 2 -15 -7 -7 -37 7 -37 17 0 13 27
11 35 -2z m42 -15 c-3 -3 -12 -4 -19 -1 -8 3 -5 6 6 6 11 1 17 -2 13 -5z"/>
<path d="M3531 2064 c0 -11 3 -14 6 -6 3 7 2 16 -1 19 -3 4 -6 -2 -5 -13z"/>
<path d="M3537 2006 c-7 -17 20 -76 34 -76 14 0 11 12 -10 39 -10 14 -17 31
-14 38 3 7 3 13 0 13 -3 0 -7 -7 -10 -14z"/>
<path d="M3210 1804 c-30 -8 -93 -17 -140 -21 l-85 -8 3 -95 c3 -86 6 -98 30
-122 35 -37 72 -42 172 -23 47 9 99 16 116 15 38 -1 44 15 33 90 -4 30 -8 79
-8 108 -1 47 -4 54 -27 62 -29 11 -23 12 -94 -6z m8 -125 l3 -45 -47 -11 c-62
-14 -71 -10 -79 39 -8 46 -2 55 40 61 71 11 80 6 83 -44z"/>
<path d="M3551 1684 c0 -11 3 -14 6 -6 3 7 2 16 -1 19 -3 4 -6 -2 -5 -13z"/>
<path d="M240 2498 c-11 -12 -25 -38 -30 -57 -14 -50 -12 -151 4 -179 12 -22
13 -20 30 40 34 117 45 181 35 200 -12 23 -14 23 -39 -4z"/>
<path d="M263 2169 c4 -15 0 -23 -13 -26 -20 -5 -36 -33 -19 -33 6 0 9 -9 6
-20 -4 -17 -2 -18 14 -9 14 7 19 6 19 -3 0 -10 2 -10 9 1 5 7 14 10 20 7 14
-9 14 4 0 60 -7 27 -17 44 -26 44 -11 0 -14 -7 -10 -21z"/>
<path d="M356 2062 c-3 -2 -16 -6 -29 -7 -47 -5 -128 -48 -162 -86 -45 -51
-48 -74 -5 -47 15 10 22 9 38 -5 20 -18 33 -22 30 -9 -3 15 15 42 28 42 7 0
19 -9 27 -21 l15 -21 7 21 c7 23 25 27 42 10 8 -8 15 -5 26 11 13 19 16 20 30
5 15 -14 17 -14 23 10 8 30 43 53 54 35 5 -8 9 -7 14 5 4 10 12 15 21 11 8 -3
22 -9 30 -12 29 -12 15 12 -17 28 -48 25 -159 44 -172 30z"/>
<path d="M508 1951 c-4 -28 -3 -30 10 -18 10 11 11 20 4 32 -8 15 -10 13 -14
-14z"/>
<path d="M443 1939 c-7 -38 -29 -48 -48 -23 -14 18 -14 18 -15 -7 0 -33 -30
-48 -37 -19 -7 25 -29 26 -37 3 -3 -10 -10 -28 -15 -39 -8 -19 -7 -21 10 -17
10 3 19 9 19 14 0 5 11 9 24 9 14 0 28 5 31 10 3 6 14 10 23 10 9 1 34 8 54
18 30 14 35 21 27 35 -7 12 -6 17 3 17 9 0 9 3 -2 10 -24 15 -30 12 -37 -21z"/>
<path d="M553 1922 c-10 -10 -30 -26 -45 -35 -34 -21 -28 -52 8 -43 18 5 23 1
26 -16 4 -20 5 -20 11 7 28 118 28 115 0 87z"/>
<path d="M238 1878 c-15 -33 -18 -34 -41 -8 -9 11 -24 20 -32 20 -17 0 -68
-50 -60 -58 9 -10 85 -9 85 1 0 5 6 4 14 -2 10 -9 16 -9 21 -1 4 6 15 8 26 5
10 -4 19 -3 20 2 5 51 2 70 -8 70 -7 0 -18 -13 -25 -29z"/>
<path d="M591 1863 c0 -6 -4 -20 -7 -30 -5 -14 -4 -15 5 -7 7 7 11 20 8 30 -3
11 -5 14 -6 7z"/>
<path d="M359 1832 c-2 -7 -14 -14 -27 -15 -21 -1 -33 -27 -12 -27 6 0 25 -14
43 -31 l32 -31 16 54 c16 56 12 66 -20 49 -14 -8 -20 -8 -24 2 -3 9 -5 9 -8
-1z"/>
<path d="M440 1803 c-21 -58 -23 -80 -4 -80 10 0 14 7 11 21 -6 27 7 72 20 69
5 -1 10 5 10 13 0 28 -23 13 -37 -23z"/>
<path d="M245 1800 c-3 -5 -33 -7 -66 -5 -52 4 -58 3 -45 -10 8 -8 17 -15 20
-15 3 0 21 -16 41 -35 19 -20 39 -34 44 -31 4 3 8 24 9 46 1 23 4 46 8 51 3 5
3 9 0 9 -3 0 -7 -4 -11 -10z"/>
<path d="M462 1780 c0 -14 2 -19 5 -12 2 6 2 18 0 25 -3 6 -5 1 -5 -13z"/>
<path d="M97 1783 c-2 -5 0 -21 4 -38 7 -29 7 -29 8 8 1 35 -3 46 -12 30z"/>
<path d="M275 1779 c-4 -6 -5 -12 -2 -15 2 -3 7 2 10 11 7 17 1 20 -8 4z"/>
<path d="M611 1770 c-16 -9 -22 -62 -7 -57 9 3 29 58 23 63 -1 2 -9 -1 -16 -6z"/>
<path d="M565 1740 c3 -5 8 -10 11 -10 2 0 4 5 4 10 0 6 -5 10 -11 10 -5 0 -7
-4 -4 -10z"/>
<path d="M153 1710 c1 -11 5 -20 9 -20 11 0 10 28 -1 35 -6 3 -9 -4 -8 -15z"/>
<path d="M353 1715 c0 -8 4 -12 9 -9 5 3 6 10 3 15 -9 13 -12 11 -12 -6z"/>
<path d="M125 1700 c-3 -5 -1 -10 4 -10 6 0 11 5 11 10 0 6 -2 10 -4 10 -3 0
-8 -4 -11 -10z"/>
<path d="M520 1680 c0 -39 -26 -46 -44 -12 l-15 27 -1 -25 c-1 -46 -12 -71
-29 -67 -9 2 -15 9 -13 15 1 7 -2 12 -8 12 -5 0 -10 7 -10 15 0 8 -5 15 -11
15 -6 0 -9 -6 -6 -12 7 -21 -11 -58 -29 -58 -8 0 -21 14 -27 30 -11 29 -27 41
-27 20 0 -6 -11 -22 -25 -35 -13 -14 -20 -26 -15 -26 6 -1 15 -2 20 -3 6 0 15
-8 20 -16 7 -10 10 -11 10 -2 0 6 7 12 16 12 9 0 12 -5 8 -12 -5 -7 -3 -8 7
-3 7 5 28 8 46 7 18 -2 33 2 33 7 0 6 7 8 16 4 9 -3 19 -1 23 5 3 6 13 12 20
14 25 5 101 73 101 90 0 4 -6 7 -12 6 -7 -2 -12 2 -11 7 1 6 -7 12 -18 12 -15
1 -19 -5 -19 -27z"/>
<path d="M140 1668 c0 -10 6 -18 14 -18 7 0 29 -13 47 -30 25 -21 35 -25 37
-15 2 8 10 11 18 8 8 -3 14 1 14 11 0 9 0 19 0 23 0 4 -26 9 -57 11 -31 1 -61
8 -65 15 -5 8 -8 7 -8 -5z"/>
<path d="M425 1670 c-3 -5 -1 -18 4 -27 9 -16 10 -14 11 10 0 28 -5 34 -15 17z"/>
<path d="M350 1659 c0 -5 -5 -7 -11 -4 -6 4 -5 -2 2 -13 7 -12 17 -18 21 -16
12 7 10 44 -2 44 -5 0 -10 -5 -10 -11z"/>
<path d="M5522 1880 c-6 -10 -24 -24 -41 -31 -16 -7 -27 -17 -24 -22 3 -5 0
-8 -7 -5 -8 2 -29 -12 -47 -31 -18 -19 -33 -32 -33 -28 0 4 -27 -21 -60 -55
-33 -35 -60 -69 -60 -75 0 -7 -1 -16 -2 -20 -2 -5 14 -8 35 -8 24 -1 37 4 37
12 0 7 9 13 19 13 11 0 23 5 26 10 3 6 10 10 16 10 14 0 11 -37 -4 -52 -8 -7
-16 -25 -19 -40 -4 -22 -2 -25 11 -16 9 6 30 29 46 51 48 65 58 61 51 -19 -6
-63 -5 -67 9 -49 8 11 22 27 29 36 8 9 17 26 21 38 3 12 11 21 16 21 5 0 12 1
17 3 4 1 8 -18 8 -41 1 -24 7 -49 13 -55 13 -13 10 -15 40 46 24 46 40 59 43
35 2 -24 5 -33 17 -62 l12 -29 17 24 c9 13 17 31 17 39 0 8 9 15 20 15 11 0
19 -5 18 -12 -5 -23 26 -67 56 -79 27 -11 31 -11 31 3 0 10 6 13 16 9 11 -4
15 -2 11 7 -5 14 -129 203 -147 224 -5 7 -10 17 -10 23 0 6 -4 8 -10 5 -5 -3
-10 1 -10 9 0 8 -10 21 -22 27 -13 7 -30 20 -39 30 -9 10 -36 27 -61 38 -43
18 -45 18 -56 1z m-78 -122 c-8 -28 -12 -33 -20 -25 -9 8 6 47 17 47 6 0 7
-10 3 -22z m278 -50 c-16 -16 -37 4 -28 28 6 16 8 16 23 1 13 -13 15 -19 5
-29z m-131 -31 c-16 -16 -26 20 -10 40 13 15 14 14 17 -7 2 -12 -1 -27 -7 -33z"/>
<path d="M5284 1558 c-3 -5 -9 -6 -13 -4 -4 3 -24 -11 -45 -30 -20 -19 -40
-34 -45 -34 -4 0 -22 -16 -41 -35 -19 -19 -40 -35 -47 -35 -7 0 -13 -4 -13
-10 0 -5 -15 -24 -34 -42 -37 -36 -75 -120 -57 -126 6 -2 8 -9 4 -15 -5 -9 -3
-9 8 -1 8 6 32 17 54 24 22 7 42 16 45 19 7 9 78 30 83 24 7 -7 -15 -73 -25
-73 -4 0 -8 -9 -8 -20 0 -22 51 -42 58 -22 2 7 9 12 17 12 7 0 18 7 25 15 7 8
16 13 20 10 4 -3 10 3 13 14 2 10 13 20 24 23 17 4 19 0 18 -40 -2 -58 14 -91
38 -83 10 4 18 10 18 14 -2 15 43 106 54 111 8 3 15 -10 18 -37 3 -23 11 -43
16 -45 6 -2 11 -8 11 -13 0 -6 -5 -7 -12 -3 -7 4 -8 3 -4 -4 8 -14 54 -5 73
13 7 7 15 24 18 38 6 22 4 25 -14 20 -17 -4 -21 -1 -21 21 0 29 11 33 30 11 6
-8 22 -13 33 -12 17 1 22 -3 21 -20 0 -14 7 -25 18 -29 10 -3 16 -9 13 -13 -2
-5 3 -17 11 -27 9 -10 12 -13 8 -5 -5 10 -1 12 13 7 15 -5 23 2 36 32 9 21 17
43 17 49 0 6 6 16 14 22 11 10 16 8 20 -6 3 -11 24 -38 45 -61 l40 -42 16 22
c8 13 20 40 26 61 6 22 16 37 25 37 8 0 12 -4 9 -10 -3 -5 1 -10 10 -10 11 0
15 -5 11 -15 -3 -8 -2 -15 3 -15 5 0 11 -9 14 -21 3 -12 10 -18 15 -15 6 3 12
-1 16 -9 3 -9 14 -13 28 -11 13 3 28 5 35 5 6 1 16 15 22 33 9 25 8 35 -4 48
-8 9 -15 22 -15 28 0 7 -4 12 -9 12 -5 0 -13 9 -16 20 -3 11 -13 20 -21 20
-15 0 -26 10 -86 79 -32 35 -43 42 -70 40 -37 -2 -68 8 -68 23 0 12 -42 58
-52 58 -5 0 -8 -11 -8 -24 0 -16 -7 -27 -21 -31 -27 -9 -50 14 -52 49 -2 29
-7 25 -39 -34 -15 -27 -20 -29 -37 -18 -11 7 -23 25 -26 40 -9 40 -21 42 -38
5 -9 -17 -25 -38 -36 -44 -18 -11 -22 -10 -31 8 -6 11 -9 35 -7 54 l5 33 -40
-40 c-40 -41 -54 -44 -72 -15 -8 12 -7 22 2 37 11 18 10 20 -14 18 -14 -2 -28
-6 -30 -10z m76 -148 c-18 -11 -24 -6 -16 16 5 14 9 15 19 5 9 -9 9 -14 -3
-21z m-217 -45 c-22 -17 -33 -19 -33 -5 0 6 4 10 9 10 5 0 12 10 15 23 6 21 7
21 17 4 9 -15 7 -21 -8 -32z m707 35 c0 -5 -7 -10 -15 -10 -8 0 -15 5 -15 10
0 6 7 10 15 10 8 0 15 -4 15 -10z m-237 -24 c6 -15 -1 -26 -15 -26 -4 0 -8 9
-8 20 0 23 15 27 23 6z m187 -66 c0 -5 -5 -10 -11 -10 -5 0 -7 5 -4 10 3 6 8
10 11 10 2 0 4 -4 4 -10z m198 -2 c-2 -6 -10 -14 -16 -16 -7 -2 -10 2 -6 12 7
18 28 22 22 4z m-678 -22 c0 -3 -4 -8 -10 -11 -5 -3 -10 -1 -10 4 0 6 5 11 10
11 6 0 10 -2 10 -4z"/>
<path d="M5087 1218 c4 -7 -12 -12 -30 -9 -21 3 -125 -134 -153 -201 -10 -27
-21 -48 -25 -48 -3 0 -6 -19 -8 -42 -1 -23 -4 -45 -6 -49 -3 -4 7 -9 21 -12
31 -6 94 10 94 23 0 6 6 10 14 10 8 0 16 5 18 12 8 22 28 -3 28 -35 0 -36 28
-67 59 -67 11 0 29 15 41 35 27 44 37 44 46 -1 7 -40 58 -102 69 -85 3 6 10 9
15 6 14 -9 48 61 44 91 -4 24 -3 26 5 9 5 -11 10 -14 10 -7 2 23 24 7 27 -18
1 -14 9 -37 17 -53 l14 -27 37 44 c20 24 36 49 36 55 0 6 8 11 19 11 14 0 21
-10 25 -35 5 -27 12 -35 29 -35 18 0 19 -2 7 -10 -11 -7 -8 -9 14 -8 15 2 31
9 34 18 3 8 9 17 12 20 4 3 13 18 21 34 19 41 36 43 44 7 4 -17 10 -31 15 -31
4 0 13 -13 19 -29 20 -47 51 -36 81 29 27 56 32 56 44 6 13 -52 60 -74 71 -33
9 33 27 67 36 67 4 0 10 -13 14 -30 4 -16 10 -30 15 -30 4 0 13 -14 20 -30 16
-39 20 -34 27 31 3 30 9 58 13 63 11 11 32 -3 24 -16 -7 -11 72 -88 90 -88 57
1 77 39 45 84 -16 21 -18 30 -9 36 9 6 8 14 -4 37 -8 17 -13 33 -10 35 2 3 -2
11 -11 18 -8 7 -15 19 -15 27 0 8 -5 11 -12 7 -8 -5 -9 -2 -5 10 4 10 3 15 -3
11 -6 -3 -13 1 -16 10 -12 30 -60 70 -104 86 -35 12 -49 24 -66 58 -20 40 -22
42 -29 19 -4 -12 -7 -28 -6 -34 1 -6 -10 -20 -22 -33 -20 -18 -28 -20 -50 -12
-15 6 -27 17 -27 26 0 8 -4 14 -9 13 -5 -2 -10 2 -12 7 -2 6 -8 15 -13 21 -13
14 -36 -1 -36 -22 0 -7 -10 -25 -23 -39 -20 -24 -25 -25 -49 -15 -14 7 -34 28
-44 46 -19 35 -34 44 -34 20 0 -7 -11 -25 -25 -40 -14 -15 -25 -31 -25 -37 0
-5 -9 -9 -20 -9 -30 0 -70 44 -70 77 -1 26 -1 27 -15 9 -8 -10 -12 -22 -10
-26 3 -4 -2 -13 -10 -20 -8 -7 -15 -18 -15 -25 0 -7 -11 -15 -25 -17 -33 -7
-59 23 -58 67 1 36 -10 45 -24 21 -8 -14 -73 -51 -73 -41 0 3 -8 1 -19 -4 -29
-16 -63 21 -56 62 6 29 4 32 -18 32 -14 0 -23 -3 -20 -7z m53 -118 c0 -5 -4
-10 -10 -10 -5 0 -10 5 -10 10 0 6 5 10 10 10 6 0 10 -4 10 -10z m617 -42 c-3
-8 -6 -5 -6 6 -1 11 2 17 5 13 3 -3 4 -12 1 -19z m-167 2 c0 -5 -4 -10 -9 -10
-6 0 -13 5 -16 10 -3 6 1 10 9 10 9 0 16 -4 16 -10z m390 -10 c0 -5 -7 -10
-15 -10 -8 0 -15 5 -15 10 0 6 7 10 15 10 8 0 15 -4 15 -10z m-770 -56 c0 -14
-4 -23 -9 -20 -5 3 -7 15 -4 26 7 28 13 25 13 -6z m-210 -3 c0 -9 -24 -21 -42
-21 -6 0 -6 6 2 15 14 16 40 20 40 6z m430 -11 c0 -11 -7 -20 -15 -20 -27 0
-18 30 13 39 1 1 2 -8 2 -19z m480 -44 c0 -17 -14 -29 -23 -20 -8 8 3 34 14
34 5 0 9 -6 9 -14z m-199 -73 c-10 -17 -10 -16 -11 3 0 23 13 41 18 25 2 -6
-1 -18 -7 -28z"/>
<path d="M5591 733 c-13 -25 -56 -32 -64 -10 -9 25 -16 0 -17 -68 -2 -104 -1
-117 10 -110 6 3 13 -1 16 -9 3 -9 11 -13 17 -9 7 4 25 6 42 4 l31 -2 -4 83
c-1 46 -6 97 -11 113 -7 30 -7 30 -20 8z"/>
<path d="M1590 1714 c0 -5 -50 -9 -115 -9 -63 0 -115 -4 -115 -9 0 -4 -6 -6
-14 -3 -16 6 -56 -24 -56 -41 0 -6 -9 -14 -20 -17 -11 -3 -20 -13 -20 -21 0
-8 -10 -14 -25 -14 -18 0 -25 -5 -25 -20 0 -11 -4 -20 -10 -20 -5 0 -10 -10
-10 -22 0 -13 -7 -35 -14 -50 -8 -16 -11 -28 -7 -28 5 0 5 -19 1 -42 -5 -24
-5 -47 0 -53 12 -15 16 -68 6 -84 -5 -8 -4 -16 4 -21 7 -4 10 -12 6 -18 -3 -6
-2 -13 3 -17 6 -3 7 -13 4 -22 -4 -11 -3 -14 5 -9 8 4 12 0 12 -11 0 -20 29
-49 55 -55 9 -1 16 -7 15 -13 -1 -5 -7 -9 -14 -7 -7 1 -20 -6 -29 -15 -50 -55
-107 -103 -119 -103 -5 0 -8 -7 -8 -15 0 -8 4 -15 9 -15 5 0 14 -13 21 -30 7
-16 16 -30 21 -30 5 0 9 -9 9 -20 0 -10 10 -24 21 -31 15 -8 19 -8 15 0 -4 6
-1 11 6 11 7 0 19 9 26 21 7 12 16 18 19 15 4 -3 12 -1 19 5 8 7 19 7 30 1 21
-12 46 -69 34 -77 -5 -3 -7 -25 -4 -48 2 -23 6 -77 9 -119 2 -43 6 -82 9 -87
4 -5 2 -12 -3 -16 -6 -3 -7 -15 -2 -28 5 -12 7 -33 6 -47 -4 -40 11 -49 71
-45 30 2 54 1 54 -3 0 -4 18 -8 40 -8 22 -1 40 2 40 7 0 5 -5 9 -10 9 -7 0 -7
6 -1 17 5 10 8 42 6 71 -2 40 0 52 12 52 8 0 12 4 9 8 -2 4 9 14 26 21 23 11
35 11 49 3 13 -8 19 -8 23 1 3 8 9 7 19 -5 8 -10 18 -18 22 -18 12 0 34 -33
35 -53 0 -14 5 -16 28 -11 15 4 30 11 33 16 4 6 19 9 35 7 16 -1 37 2 48 6 12
5 21 3 27 -6 7 -10 9 -7 7 11 -2 14 -9 31 -16 39 -8 8 -11 22 -9 32 3 11 1 22
-4 25 -5 3 -8 17 -7 32 1 15 -2 37 -6 50 -4 13 -3 22 3 22 5 0 3 13 -5 30 -9
16 -15 40 -14 52 1 13 1 25 0 28 -8 18 -7 80 1 80 5 0 9 7 9 15 0 19 70 21 89
3 11 -11 12 -7 6 19 -3 18 -3 38 1 45 15 23 14 77 -1 90 -26 23 -41 33 -55 36
-8 2 -17 7 -20 11 -6 10 -70 31 -90 29 -8 -1 -23 0 -34 0 -15 2 -16 5 -6 17 7
8 21 15 31 15 13 0 19 7 19 24 0 14 4 27 9 30 8 5 -3 88 -14 107 -4 5 -1 9 4
9 16 0 13 21 -9 65 -11 22 -18 47 -15 56 3 10 -1 19 -10 23 -9 3 -14 10 -10
15 3 5 -4 12 -15 16 -13 4 -23 18 -27 36 -3 16 -12 29 -19 29 -8 0 -14 7 -14
15 0 8 -10 20 -22 26 -13 7 -26 17 -30 23 -5 7 -8 6 -8 -3 0 -11 -5 -10 -20 4
-11 10 -20 14 -20 9z m48 -89 c14 -5 22 -15 22 -31 0 -33 -18 -39 -40 -14 -18
20 -22 21 -50 9 -16 -8 -30 -19 -30 -26 0 -14 -19 -28 -27 -20 -3 3 -2 19 2
36 5 22 14 33 31 37 13 3 24 10 24 14 0 8 36 6 68 -5z m-253 -112 c5 -13 13
-23 17 -23 5 0 8 -4 8 -10 0 -15 -41 -12 -54 4 -17 23 -66 8 -85 -25 -21 -38
-46 -39 -36 -1 9 35 33 62 57 62 10 0 18 5 18 11 0 6 14 9 33 7 22 -2 35 -10
42 -25z m256 0 c3 -39 -4 -59 -25 -81 -23 -23 -24 -24 -45 -6 -11 10 -21 25
-21 34 1 21 32 57 56 63 32 8 34 8 35 -10z m-284 -87 c-3 -8 0 -20 8 -26 16
-13 9 -40 -10 -40 -7 0 -15 -6 -18 -12 -3 -9 -10 -8 -26 6 -25 23 -26 34 -5
64 17 25 60 31 51 8z m274 -83 c2 -29 -2 -48 -12 -51 -5 -2 -9 -10 -9 -18 0
-7 -12 -21 -27 -31 -16 -10 -30 -20 -33 -23 -3 -3 -14 -4 -25 -4 -11 1 -32 2
-47 3 -37 1 -88 46 -81 71 7 25 8 25 33 0 11 -11 30 -21 43 -21 12 -1 34 -2
50 -3 28 -2 61 32 62 64 1 8 6 14 13 13 7 -2 12 2 12 7 0 18 20 11 21 -7z
m-51 -299 c0 -11 6 -14 20 -9 42 13 44 -71 2 -103 -9 -7 -17 -16 -17 -20 0 -8
-53 -7 -62 1 -12 13 -10 81 3 112 15 37 54 50 54 19z m77 -239 c25 -18 29 -71
6 -84 -8 -4 -16 -12 -16 -17 -1 -5 -17 -9 -36 -10 -25 -1 -35 4 -38 17 -3 11
-9 19 -14 19 -17 0 -9 40 13 65 25 28 54 32 85 10z"/>
<path d="M1556 993 c-4 -9 -4 -18 -2 -21 8 -7 36 6 36 17 0 16 -28 20 -34 4z"/>
<path d="M2013 1098 c3 -12 2 -29 -4 -39 -6 -11 -6 -20 0 -24 6 -3 8 -21 6
-39 -4 -31 -3 -33 20 -28 14 2 25 9 25 14 0 6 7 8 15 4 10 -4 15 1 16 17 3 58
-14 93 -54 106 -27 10 -29 9 -24 -11z"/>
<path d="M1023 923 c-8 -16 -9 -31 -4 -37 5 -6 10 -14 10 -19 0 -4 7 -22 16
-40 12 -27 20 -32 47 -31 39 1 68 12 68 26 0 5 -4 7 -9 4 -12 -8 -28 13 -36
47 -4 15 -11 27 -16 27 -5 0 -9 9 -9 19 0 25 -20 38 -31 20 -7 -10 -11 -11
-17 -2 -5 8 -11 3 -19 -14z"/>
<path d="M1905 509 c-4 -6 -14 -8 -22 -5 -8 3 -12 2 -9 -2 6 -9 -74 -35 -94
-30 -10 2 -16 -9 -20 -32 -8 -46 -3 -58 31 -76 27 -13 31 -13 51 6 12 11 27
20 32 20 6 0 24 11 39 25 23 22 25 29 16 47 -6 11 -9 29 -6 39 5 20 -7 26 -18
8z"/>
<path d="M1471 384 c-1 -8 -19 -11 -52 -8 -56 3 -64 -4 -51 -51 7 -24 13 -29
33 -27 13 1 33 -4 43 -11 18 -13 22 -12 38 7 12 14 18 16 16 6 -3 -15 3 -20
23 -20 5 0 7 5 4 11 -4 6 1 16 11 23 11 9 13 15 6 20 -8 4 -8 15 -2 31 5 14 8
25 7 25 -1 0 -16 -4 -34 -9 -22 -7 -33 -6 -37 2 -3 9 -5 9 -5 1z"/>
<path d="M4196 1613 c-9 -9 -7 -53 2 -53 5 0 16 8 25 18 15 16 15 19 -2 29
-11 7 -22 9 -25 6z"/>
<path d="M3835 1470 c-4 -7 -1 -16 6 -21 17 -10 26 8 11 23 -6 6 -12 6 -17 -2z"/>
<path d="M4430 1246 c0 -8 5 -18 10 -21 6 -3 10 3 10 14 0 12 -4 21 -10 21 -5
0 -10 -6 -10 -14z"/>
<path d="M4140 1000 c-9 -43 -7 -59 11 -63 10 -3 19 -4 19 -2 0 6 -29 70 -30
65z"/>
<path d="M324 653 c-20 -41 -19 -69 1 -93 7 -8 14 -21 17 -29 2 -9 23 -15 59
-17 54 -4 55 -3 67 29 27 74 11 109 -56 127 -24 6 -49 13 -56 16 -8 3 -21 -10
-32 -33z m101 -29 c26 -27 3 -73 -36 -74 -32 0 -42 75 -11 83 29 8 30 8 47 -9z"/>
<path d="M385 590 c4 -6 11 -8 16 -5 14 9 11 15 -7 15 -8 0 -12 -5 -9 -10z"/>
<path d="M611 6362 c12 -20 34 -58 48 -84 21 -39 31 -48 52 -48 15 0 30 -7 33
-16 5 -12 14 -14 46 -9 26 4 40 3 40 -4 0 -6 7 -11 15 -11 22 0 18 16 -15 65
-16 24 -30 50 -30 58 0 10 -15 16 -47 20 -26 3 -52 11 -57 19 -6 8 -16 13 -21
11 -6 -2 -27 6 -48 16 l-38 19 22 -36z"/>
<path d="M2210 6394 c0 -4 11 -17 25 -30 14 -13 25 -18 25 -13 0 6 5 7 10 4 6
-4 7 -11 4 -17 -4 -7 -2 -8 5 -4 6 4 28 -3 49 -16 20 -12 39 -22 42 -22 3 1
11 -1 18 -3 7 -3 21 -3 32 0 19 5 23 -1 21 -33 0 -10 1 -11 5 -2 3 6 10 9 16
6 11 -7 38 28 54 71 6 17 15 38 19 48 7 16 -5 17 -159 17 -91 0 -166 -3 -166
-6z"/>
<path d="M3425 6388 c-2 -7 -7 -32 -9 -56 -3 -23 -8 -47 -11 -52 -3 -5 -8 -35
-12 -66 -5 -59 2 -74 39 -74 11 0 20 15 28 53 7 28 15 57 19 62 3 6 6 16 8 24
1 8 4 25 8 38 3 13 1 23 -5 23 -5 0 -10 7 -10 16 0 8 5 12 11 8 10 -6 29 12
29 29 0 13 -90 8 -95 -5z"/>
<path d="M3685 6390 c-3 -5 1 -10 10 -10 10 0 13 -5 9 -12 -4 -7 -3 -8 4 -4
12 7 5 36 -8 36 -5 0 -12 -4 -15 -10z"/>
<path d="M3756 6391 c-4 -7 -5 -15 -2 -18 9 -9 19 4 14 18 -4 11 -6 11 -12 0z"/>
<path d="M3831 6382 c-13 -25 1 -31 44 -21 17 4 24 7 16 8 -8 0 -22 8 -32 17
-16 14 -18 14 -28 -4z"/>
<path d="M4000 6388 c0 -10 -6 -15 -17 -12 -11 3 -23 -3 -30 -15 -10 -17 -9
-22 13 -36 25 -16 27 -16 45 4 18 19 18 23 5 48 -10 18 -15 22 -16 11z"/>
<path d="M4939 6383 c-2 -38 -9 -88 -13 -99 -2 -6 9 -11 26 -11 16 0 33 -5 38
-12 5 -9 13 -10 26 -4 17 9 87 14 194 16 19 0 29 2 23 4 -25 9 -12 21 30 28
23 4 45 7 50 6 4 0 7 6 7 14 0 8 8 15 18 15 10 0 26 6 37 14 11 7 23 14 28 15
4 0 7 3 7 6 0 3 0 10 0 15 0 15 -146 12 -171 -2 -17 -10 -23 -10 -26 0 -7 19
-163 17 -163 -3 0 -27 -22 -62 -51 -79 -28 -17 -28 -17 -35 9 -3 14 -4 39 0
55 4 22 2 30 -9 30 -8 0 -16 -8 -16 -17z"/>
<path d="M710 6184 c0 -3 11 -19 25 -36 14 -16 25 -36 25 -43 0 -9 6 -12 17
-8 12 5 14 3 8 -8 -8 -12 -6 -12 8 0 15 12 21 9 19 -10 -1 -8 31 -5 46 5 8 5
20 1 31 -8 10 -9 21 -13 25 -9 4 4 11 1 16 -7 6 -8 10 -10 10 -5 0 15 -37 85
-42 80 -2 -3 -20 0 -39 5 -19 6 -49 12 -68 15 -18 2 -44 11 -57 20 -13 8 -24
13 -24 9z"/>
<path d="M800 6031 c0 -5 7 -11 15 -15 8 -3 14 -9 14 -13 -1 -4 1 -15 5 -24 7
-16 10 -16 47 0 21 9 37 20 36 25 -7 22 -117 47 -117 27z"/>
<path d="M6325 4616 c-15 -23 -15 -27 0 -60 14 -29 23 -36 46 -36 20 0 29 5
29 16 0 11 -6 14 -20 9 -15 -5 -21 0 -26 19 -8 32 3 49 27 43 12 -3 19 0 19 9
0 8 -6 14 -14 14 -8 0 -21 3 -29 6 -10 3 -22 -4 -32 -20z"/>
<path d="M4769 510 c-23 -13 -85 -91 -93 -116 -5 -15 -2 -21 11 -21 17 0 32
11 84 60 58 55 57 111 -2 77z"/>
<path d="M4412 419 c2 -7 13 -17 24 -23 10 -6 22 -15 25 -19 3 -5 9 -8 13 -8
3 1 7 0 9 0 5 -3 53 -7 100 -9 50 -3 67 4 51 19 -32 30 -231 66 -222 40z"/>
<path d="M4885 371 c-11 -5 -26 -6 -32 -4 -7 3 -13 1 -13 -5 0 -5 -6 -9 -12
-8 -7 0 -36 -5 -64 -13 l-51 -14 19 -39 c10 -21 21 -51 24 -68 6 -26 10 -29
38 -25 17 2 31 4 31 5 0 1 8 3 17 5 9 2 33 9 54 15 l37 12 -7 52 c-3 28 -6 61
-6 74 0 24 -4 25 -35 13z"/>
<path d="M4580 285 c-30 -13 -58 -21 -62 -18 -5 2 -8 -1 -8 -6 0 -6 -6 -11
-14 -11 -28 0 -26 -19 4 -79 30 -58 51 -74 66 -50 3 6 15 9 25 6 11 -3 19 -2
19 3 0 4 14 10 30 14 53 10 58 21 40 95 -10 41 -22 67 -31 68 -8 1 -39 -9 -69
-22z"/>
<path d="M4866 145 c-33 -14 -61 -27 -63 -29 -3 -2 3 -30 13 -61 l18 -56 60 3
61 3 0 40 c1 48 -14 125 -23 125 -4 -1 -34 -12 -66 -25z"/>
<path d="M4660 80 c-57 -10 -109 -31 -92 -37 6 -3 12 -13 12 -24 0 -17 8 -19
80 -19 73 0 80 2 80 20 0 22 -20 71 -29 69 -3 -1 -26 -5 -51 -9z"/>
<path d="M2378 22 c-43 -5 -33 -22 12 -22 27 0 40 4 40 13 0 14 -5 15 -52 9z"/>
</g>
</svg>
